<svg xmlns="http://www.w3.org/2000/svg" fill="none" viewBox="0 0 50 50" id="Allergens-Fish--Streamline-Flex.svg" height="50" width="50"><desc>Allergens Fish Streamline Icon: https://streamlinehq.com</desc><g id="allergens-fish--fish-produce-food-allergens-allergy"><path id="Union" stroke="#000000" stroke-linecap="round" stroke-linejoin="round" d="M39.090357142857144 35.06757142857143c7.894642857142858 -3.670321428571429 10.865357142857144 -13.971107142857145 6.512142857142857 -21.510821428571433C41.24964285714286 6.017035714285715 30.843428571428575 3.4394750000000003 23.7175 8.44125c-4.048107142857143 2.841464285714286 -7.334428571428572 6.294642857142858 -10.053749999999999 11.483535714285715 -1.0515714285714286 2.0065714285714287 -1.2289285714285716 4.279571428571429 -0.7163214285714286 6.438607142857143C8.449285714285715 25.334928571428573 3.319714285714286 24.123464285714288 2.5243285714285717 28.177857142857146c-0.6440821428571429 3.283178571428572 2.458992857142857 5.433607142857143 3.9308500000000004 7.982857142857143 1.5434285714285714 2.673214285714286 1.731107142857143 6.081428571428572 4.948 7.395714285714287 3.144857142857143 1.2846428571428572 5.424964285714286 -3.710714285714286 6.783285714285714 -8.120571428571429 1.6131428571428572 1.5223571428571427 3.6694285714285715 2.5041428571428574 5.931821428571429 2.5966428571428573 5.853357142857144 0.23964285714285719 10.487107142857143 -0.8800000000000001 14.972071428571429 -2.9649285714285716Z" stroke-width="1"></path><path id="Vector 3175" stroke="#000000" stroke-linecap="round" stroke-linejoin="round" d="M28.344714285714286 13.664892857142858c-0.6445357142857143 3.524107142857143 0.1728214285714286 11.4365 8.5985 14.893142857142857" stroke-width="1"></path><path id="Vector 3176" stroke="#000000" stroke-linecap="round" stroke-linejoin="round" d="m37.07785714285715 17.579 0.3925 0.6793571428571429" stroke-width="1"></path></g></svg>