<svg xmlns="http://www.w3.org/2000/svg" fill="none" viewBox="0 0 50 50" id="Blood-Donate-Drop--Streamline-Flex.svg" height="50" width="50"><desc>Blood Donate Drop Streamline Icon: https://streamlinehq.com</desc><g id="blood-donate-drop"><path id="Vector 2616" stroke="#000000" stroke-linecap="round" d="m41.00714285714286 47.67142857142858 5.571428571428572 -6.9750000000000005a7.142857142857143 7.142857142857143 0 0 0 1.5607142857142857 -4.457142857142857v-15.357142857142858a3.5714285714285716 3.5714285714285716 0 0 0 -3.5714285714285716 -3.5714285714285716v0a3.5714285714285716 3.5714285714285716 0 0 0 -3.5714285714285716 3.5714285714285716v10.714285714285715" stroke-width="1"></path><path id="Vector 2617" stroke="#000000" stroke-linecap="round" d="m37.72857142857143 38.12857142857143 2.525 -2.525a3.5714285714285716 3.5714285714285716 0 0 0 0 -5.05v0a3.5714285714285716 3.5714285714285716 0 0 0 -5.05 0l-1.4785714285714286 1.4785714285714286a17.857142857142858 17.857142857142858 0 0 0 -5.228571428571429 12.625000000000002v3.0142857142857142" stroke-width="1"></path><path id="Vector" stroke="#000000" stroke-linecap="round" stroke-linejoin="round" d="M34.121428571428574 16.925C34.121428571428574 8.132142857142858 25.071428571428573 2.3285714285714287 25.071428571428573 2.3285714285714287S16.028571428571432 8.132142857142858 16.028571428571432 16.92857142857143c0 2.05 0.9535714285714286 4.014285714285715 2.65 5.464285714285714 1.6964285714285714 1.4464285714285716 4.000000000000001 2.2607142857142857 6.396428571428571 2.2607142857142857 2.4000000000000004 0 4.7 -0.8142857142857144 6.396428571428571 -2.2607142857142857 1.6964285714285714 -1.4500000000000002 2.65 -3.414285714285714 2.65 -5.464285714285714Z" stroke-width="1"></path><path id="Vector 2618" stroke="#000000" stroke-linecap="round" d="m8.996428571428572 47.67142857142858 -5.571428571428572 -6.9750000000000005a7.142857142857143 7.142857142857143 0 0 1 -1.5642857142857143 -4.457142857142857v-15.357142857142858a3.5714285714285716 3.5714285714285716 0 0 1 3.5714285714285716 -3.5714285714285716v0a3.5714285714285716 3.5714285714285716 0 0 1 3.5714285714285716 3.5714285714285716v10.714285714285715" stroke-width="1"></path><path id="Vector 2619" stroke="#000000" stroke-linecap="round" d="m12.271428571428572 38.12857142857143 -2.525 -2.525a3.5714285714285716 3.5714285714285716 0 0 1 0 -5.05v0a3.5714285714285716 3.5714285714285716 0 0 1 5.05 0l1.4785714285714286 1.4785714285714286a17.857142857142858 17.857142857142858 0 0 1 5.228571428571429 12.625000000000002v3.0142857142857142" stroke-width="1"></path></g></svg>