<svg xmlns="http://www.w3.org/2000/svg" fill="none" viewBox="0 0 50 50" id="Earth-1--Streamline-Flex.svg" height="50" width="50"><desc>Earth 1 Streamline Icon: https://streamlinehq.com</desc><g id="earth-1--planet-earth-globe-world"><path id="Vector" stroke="#000000" stroke-linecap="round" stroke-linejoin="round" d="M10.53192857142857 33.510464285714285c1.58 0 3.0952500000000005 -0.6276428571428572 4.212464285714286 -1.7448571428571429 1.1172142857142857 -1.1172142857142857 1.7448571428571429 -2.632464285714286 1.7448571428571429 -4.212464285714286V22.446857142857144c0 -1.5799642857142857 0.6276785714285714 -3.0952500000000005 1.7448928571428572 -4.212464285714286 1.1172142857142857 -1.1172142857142857 2.632464285714286 -1.7448571428571429 4.212428571428572 -1.7448571428571429 1.58 0 3.0952500000000005 -0.6276428571428572 4.212464285714286 -1.7448571428571429 1.11725 -1.1172142857142857 1.7448928571428572 -2.632464285714286 1.7448928571428572 -4.212464285714286V2.841332142857143C27.31239285714286 2.733157142857143 26.17742857142857 2.678571428571429 25 2.678571428571429 10.714285714285715 2.678571428571429 2.678571428571429 10.714285714285715 2.678571428571429 25c0 3.146357142857143 0.3897964285714286 5.989535714285715 1.1503214285714285 8.510464285714287h6.703035714285714Z" stroke-width="1"></path><path id="Vector_2" stroke="#000000" stroke-linecap="round" stroke-linejoin="round" d="m38.63357142857143 42.42964285714286 -0.003928571428571429 1.4139285714285714m0 0c5.656428571428572 -3.6439285714285714 8.692142857142859 -10.063107142857143 8.692142857142859 -18.843500000000002 0 -0.07703571428571429 -0.0003571428571428572 -0.15385714285714286 -0.0007142857142857144 -0.2305l-0.19607142857142856 -0.1110357142857143c-1.7039285714285717 -0.8836428571428572 -3.593571428571429 -1.3499642857142857 -5.512857142857143 -1.3605357142857144H34.361357142857145c-1.58 0 -3.0952500000000005 0.6276428571428572 -4.212464285714286 1.7448571428571429 -1.1172142857142857 1.1172142857142857 -1.7448928571428572 2.632464285714286 -1.7448928571428572 4.212464285714286 0 1.5799642857142857 0.6276785714285714 3.0952500000000005 1.7448928571428572 4.212464285714286 1.1172142857142857 1.1172142857142857 2.632464285714286 1.7448571428571429 4.212464285714286 1.7448571428571429 1.1285357142857144 0 2.2107857142857146 0.4483214285714286 3.0090000000000003 1.2462857142857142 0.7978571428571428 0.7982142857142858 1.2460714285714285 1.8803571428571428 1.2460714285714285 3.0089285714285716v4.383928571428572l0.013214285714285715 -0.008214285714285714Z" stroke-width="1"></path><path id="Vector_3" stroke="#000000" stroke-linecap="round" stroke-linejoin="round" d="M25 47.32142857142858c14.285714285714286 0 22.321428571428573 -8.035714285714286 22.321428571428573 -22.321428571428573S39.285714285714285 2.678571428571429 25 2.678571428571429 2.678571428571429 10.714285714285715 2.678571428571429 25 10.714285714285715 47.32142857142858 25 47.32142857142858Z" stroke-width="1"></path></g></svg>