<svg xmlns="http://www.w3.org/2000/svg" fill="none" viewBox="0 0 50 50" id="Insurance-Hand-1--Streamline-Flex.svg" height="50" width="50"><desc>Insurance Hand 1 Streamline Icon: https://streamlinehq.com</desc><g id="insurance-hand-1--health-medical-insurance-hand-cross"><path id="Union" stroke="#000000" stroke-linecap="round" stroke-linejoin="round" d="M34.184285714285714 24.91192857142857c-1.6348928571428574 -0.1480357142857143 -2.8106785714285714 -1.56675 -2.8601785714285715 -3.207607142857143 -0.03042857142857143 -1.0092142857142858 -0.055107142857142855 -2.009714285714286 -0.07403571428571429 -3.004857142857143 -1.00725 -0.019000000000000003 -2.019964285714286 -0.04389285714285715 -3.0415714285714284 -0.07471428571428572 -1.6407857142857143 -0.0495 -3.0595 -1.2251785714285717 -3.2075714285714287 -2.86 -0.11750000000000001 -1.2974642857142857 -0.11750000000000001 -2.5670714285714284 0 -3.8645357142857146 0.14807142857142858 -1.6348214285714286 1.5667857142857142 -2.8105 3.2075714285714287 -2.86 1.021607142857143 -0.030821428571428576 2.0343214285714284 -0.055714285714285716 3.0415357142857142 -0.07471428571428572 0.01892857142857143 -0.9958214285714287 0.04360714285714286 -1.9970357142857142 0.07407142857142858 -3.006964285714286 0.0495 -1.6408214285714287 1.2252857142857143 -3.0595607142857144 2.8601785714285715 -3.2075714285714287 1.297357142857143 -0.11745 2.5667857142857144 -0.11745 3.8642857142857148 0.00000357142857142857 1.635 0.14800714285714286 2.810714285714286 1.5667464285714285 2.86 3.207567857142857 0.030714285714285715 1.0103214285714286 0.05535714285714286 2.011964285714286 0.07428571428571429 3.0081428571428575 0.9864285714285714 0.018857142857142857 1.9782142857142857 0.04335714285714286 2.978214285714286 0.07353571428571429 1.6410714285714287 0.0495 3.0596428571428573 1.2251785714285717 3.207857142857143 2.86 0.11750000000000001 1.2974642857142857 0.11750000000000001 2.5670714285714284 0 3.8645357142857146 -0.14821428571428574 1.6348214285714286 -1.5667857142857142 2.8105 -3.207857142857143 2.86 -1.0000000000000002 0.030178571428571426 -1.9917857142857143 0.05467857142857143 -2.978214285714286 0.07353571428571429 -0.01892857142857143 0.9955 -0.04357142857142857 1.9964285714285717 -0.07428571428571429 3.006035714285715 -0.04928571428571429 1.640857142857143 -1.225 3.0595714285714286 -2.86 3.207607142857143 -1.2975 0.11742857142857144 -2.566928571428572 0.11742857142857144 -3.8642857142857148 0Z" stroke-width="1"></path><path id="Vector 353" stroke="#000000" stroke-linecap="round" stroke-linejoin="round" d="m3.8073214285714285 22.734428571428573 2.494464285714286 -0.15432142857142858c2.9385357142857145 -0.18182142857142858 5.8875 0.09164285714285714 8.742500000000001 0.8106785714285715l4.164428571428571 1.048857142857143c2.279357142857143 0.5740714285714286 3.791714285714286 2.7343571428571427 3.5511785714285717 5.072535714285714v0c-0.2815357142857143 2.737142857142857 -2.8303214285714287 4.657642857142858 -5.539000000000001 4.173678571428572l-3.958928571428572 -0.7073571428571429 13.958535714285714 2.503142857142857L41.67857142857143 32.05014285714286c2.338571428571429 -0.5550714285714287 4.693928571428572 0.8541428571428572 5.310357142857144 3.1774285714285715v0c0.5725 2.1581428571428574 -0.5485714285714286 4.405285714285714 -2.6171428571428574 5.245642857142857l-11.564857142857145 4.698571428571429c-5.625642857142857 2.2860714285714288 -11.894250000000001 2.4289285714285715 -17.618357142857143 0.4025L3.198242857142857 41.32928571428572" stroke-width="1"></path></g></svg>