<svg xmlns="http://www.w3.org/2000/svg" fill="none" viewBox="0 0 50 50" id="Pine-Tree--Streamline-Flex.svg" height="50" width="50"><desc>Pine Tree Streamline Icon: https://streamlinehq.com</desc><g id="pine-tree--nature-plant-tree-farming-christmas-plants-pine-environment"><path id="Vector" stroke="#000000" stroke-linecap="round" stroke-linejoin="round" d="M24.990178571428572 38.949285714285715H25m0 0c5.755357142857143 -0.0014285714285714288 13.100714285714288 -1.1485714285714286 16.811071428571427 -1.8007142857142857 1.215 -0.21321428571428575 1.8464285714285715 -1.372857142857143 1.2860714285714285 -2.3381428571428575 -3.0796428571428573 -5.305285714285715 -5.411428571428572 -8.650857142857143 -8.738357142857144 -12.342714285714287 -1.0136428571428573 -1.1248214285714286 -0.12114285714285715 -2.8101785714285716 1.518 -2.8101785714285716h1.8282142857142858c1.3039285714285713 0 2.225357142857143 -1.1109285714285715 1.7228571428571429 -2.161357142857143C36.47714285714286 11.328892857142858 31.019678571428575 5.900857142857143 25 2.900914285714286 18.98032142857143 5.900857142857143 13.523035714285715 11.328892857142858 10.572321428571428 17.496178571428572c-0.5026071428571428 1.0504285714285715 0.4188928571428572 2.161357142857143 1.7225714285714289 2.161357142857143h1.8283571428571428c1.639107142857143 0 2.5316071428571427 1.685357142857143 1.5179642857142859 2.8101785714285716 -3.326892857142857 3.691857142857143 -5.658714285714287 7.037428571428572 -8.7385 12.342714285714287 -0.5603214285714286 0.9652857142857144 0.07121428571428572 2.1249285714285713 1.286107142857143 2.3381428571428575 3.7105 0.6521428571428572 11.055821428571429 1.7992857142857144 16.811178571428574 1.8007142857142857Zm0 0h0.009821428571428571" stroke-width="1"></path><path id="Vector_2" stroke="#000000" stroke-linecap="round" stroke-linejoin="round" d="m25.198785714285716 38.949285714285715 0 8.149642857142856" stroke-width="1"></path></g></svg>