<svg xmlns="http://www.w3.org/2000/svg" fill="none" viewBox="0 0 50 50" id="Tidal-Wave--Streamline-Flex.svg" height="50" width="50"><desc>Tidal Wave Streamline Icon: https://streamlinehq.com</desc><g id="tidal-wave--nature-ocean-wave"><path id="Vector 719" stroke="#000000" stroke-linecap="round" stroke-linejoin="round" d="M47.32107142857143 12.501285714285716c-4.064642857142857 -5.233392857142857 -16.315714285714286 -13.753032142857144 -29.464142857142857 -7.142857142857143 16.586 -0.4305714285714286 16.57357142857143 19.642857142857142 -1.7857142857142858 19.642857142857142 -6.359035714285715 0 -10.561392857142858 -1.5404642857142858 -13.312425000000001 -3.4458928571428573" stroke-width="1"></path><path id="Vector 720" stroke="#000000" stroke-linecap="round" stroke-linejoin="round" d="M2.678571428571429 33.02339285714286c1.4778214285714286 0.9852142857142857 5.911321428571429 2.9555357142857144 11.822642857142858 2.9555357142857144 7.389178571428572 0 12.089857142857143 -5.91125 20.956857142857142 -5.91125 7.093714285714286 0 9.644428571428572 2.451 11.863357142857144 4.125642857142858" stroke-width="1"></path><path id="Vector 722" stroke="#000000" stroke-linecap="round" stroke-linejoin="round" d="M2.678571428571429 42.5675c1.4778214285714286 0.9853571428571428 5.911321428571429 2.955714285714286 11.822642857142858 2.955714285714286 11.031107142857143 0 12.124785714285716 -5.911428571428572 21.27771428571429 -5.911428571428572 5.7960714285714285 0 8.930357142857144 2.460714285714286 10.571785714285715 4.575" stroke-width="1"></path></g></svg>