<?xml version="1.0" encoding="UTF-8"?>
<!DOCTYPE svg PUBLIC "-//W3C//DTD SVG 1.1//EN" "http://www.w3.org/Graphics/SVG/1.1/DTD/svg11.dtd">
<svg xmlns="http://www.w3.org/2000/svg" version="1.1" width="500px" height="500px" style="shape-rendering:geometricPrecision; text-rendering:geometricPrecision; image-rendering:optimizeQuality; fill-rule:evenodd; clip-rule:evenodd" xmlns:xlink="http://www.w3.org/1999/xlink">
<g><path style="opacity:1" fill="#fde6b6" d="M 243.5,3.5 C 247.41,3.2628 251.077,4.09614 254.5,6C 255.264,8.06934 255.764,10.236 256,12.5C 256.818,57.1955 256.651,101.862 255.5,146.5C 263.186,147.504 270.853,148.671 278.5,150C 279.416,150.278 280.082,150.778 280.5,151.5C 281.953,152.825 281.619,153.658 279.5,154C 276.833,154.333 274.167,154.667 271.5,155C 269.112,156.861 266.446,158.194 263.5,159C 265.044,159.29 266.377,159.956 267.5,161C 264.305,161.181 261.305,161.681 258.5,162.5C 248.161,162.334 237.828,162.5 227.5,163C 223.439,165.147 219.439,166.98 215.5,168.5C 210.977,170.173 206.31,171.34 201.5,172C 200.023,174.148 198.023,175.482 195.5,176C 194.748,176.671 194.414,177.504 194.5,178.5C 192.345,178.372 190.345,178.872 188.5,180C 187.023,182.148 185.023,183.482 182.5,184C 180.859,185.129 179.859,186.629 179.5,188.5C 178.167,188.5 176.833,188.5 175.5,188.5C 175.5,189.5 175.5,190.5 175.5,191.5C 173.263,192.449 170.929,193.116 168.5,193.5C 169.244,196.95 167.91,198.616 164.5,198.5C 164.579,199.93 164.246,201.264 163.5,202.5C 161.457,203.579 160.124,205.246 159.5,207.5C 158.675,208.386 157.675,208.719 156.5,208.5C 155.72,212.127 154.22,215.46 152,218.5C 148.864,220.164 147.697,222.831 148.5,226.5C 147.504,226.414 146.671,226.748 146,227.5C 144.078,231.602 142.745,235.935 142,240.5C 140.938,241.097 139.772,241.43 138.5,241.5C 125.402,238.079 112.735,233.579 100.5,228C 97.2072,227.174 93.8738,226.674 90.5,226.5C 90.1667,226.5 89.8333,226.5 89.5,226.5C 88.9717,225.279 88.305,224.113 87.5,223C 83.8086,222.58 80.1419,222.08 76.5,221.5C 76.1667,221.5 75.8333,221.5 75.5,221.5C 72.8082,218.819 69.4748,217.486 65.5,217.5C 63.0347,217.233 60.7014,216.566 58.5,215.5C 56.3263,213.919 53.9929,212.419 51.5,211C 44.7343,209.043 38.0677,206.709 31.5,204C 28.8767,199.136 28.8767,194.303 31.5,189.5C 34.6839,188.357 38.0173,187.691 41.5,187.5C 45.8085,189.896 50.1418,192.396 54.5,195C 61.1206,196.236 67.4539,198.236 73.5,201C 75.4727,201.495 77.4727,201.662 79.5,201.5C 80.791,201.263 81.791,201.596 82.5,202.5C 85.9074,206.369 90.2407,208.369 95.5,208.5C 95.5,209.5 95.5,210.5 95.5,211.5C 100.15,212.26 104.817,212.926 109.5,213.5C 110.5,213.5 111.5,213.5 112.5,213.5C 117.717,216.574 123.384,218.908 129.5,220.5C 131.029,220.471 132.196,219.804 133,218.5C 133.567,215.832 134.067,213.166 134.5,210.5C 136.392,209.298 138.226,207.965 140,206.5C 142.333,202.833 144.667,199.167 147,195.5C 147.847,192.51 146.68,191.176 143.5,191.5C 143.662,189.473 143.495,187.473 143,185.5C 141.612,186.554 140.112,186.72 138.5,186C 137.211,184.198 135.544,183.031 133.5,182.5C 131.386,177.263 127.719,173.596 122.5,171.5C 122.649,170.448 122.483,169.448 122,168.5C 117.6,163.595 112.766,159.262 107.5,155.5C 107.291,154.078 106.791,152.745 106,151.5C 103.203,149.238 100.869,146.571 99,143.5C 97.6439,142.62 96.1439,142.286 94.5,142.5C 94.1667,141.833 93.8333,141.167 93.5,140.5C 90.8333,135.833 87.1667,132.167 82.5,129.5C 82.7852,127.712 82.4519,126.045 81.5,124.5C 78.6737,122.504 75.6737,120.837 72.5,119.5C 71.8333,116.833 70.1667,115.167 67.5,114.5C 67.5,114.167 67.5,113.833 67.5,113.5C 62.6252,107.117 57.1252,101.117 51,95.5C 49.2845,91.0748 49.7845,86.9081 52.5,83C 56.8085,80.8933 60.8085,81.2266 64.5,84C 67.973,87.473 71.473,90.973 75,94.5C 74.7712,97.8103 76.2712,99.6437 79.5,100C 83.3705,103.702 87.0371,107.536 90.5,111.5C 92.5912,114.771 94.9245,117.937 97.5,121C 98.5,121.333 99.5,121.667 100.5,122C 102.5,124.333 104.5,126.667 106.5,129C 108.078,130.094 109.745,130.928 111.5,131.5C 111.703,133.044 112.37,134.378 113.5,135.5C 116.583,138.594 119.916,141.261 123.5,143.5C 125.587,144.585 126.92,146.251 127.5,148.5C 127.238,149.978 127.571,151.311 128.5,152.5C 132.465,153.786 134.465,156.453 134.5,160.5C 135.675,160.281 136.675,160.614 137.5,161.5C 139.877,164.008 142.211,166.508 144.5,169C 147.407,171.344 150.407,173.511 153.5,175.5C 154.5,175.833 155.167,176.5 155.5,177.5C 155.794,180.646 157.461,181.813 160.5,181C 163.167,178.413 165.833,175.746 168.5,173C 169.833,172.667 171.167,172.333 172.5,172C 177.201,168.319 182.201,165.152 187.5,162.5C 188.935,161.071 189.935,159.405 190.5,157.5C 189.753,153.868 188.087,150.868 185.5,148.5C 185.785,146.712 185.452,145.045 184.5,143.5C 183.642,141.099 182.309,139.099 180.5,137.5C 181.349,132.735 179.683,129.402 175.5,127.5C 175.5,127.167 175.5,126.833 175.5,126.5C 174.054,122.037 173.22,117.371 173,112.5C 172.333,113.833 171.667,113.833 171,112.5C 169.311,108.44 167.144,104.773 164.5,101.5C 163.424,96.3996 161.924,91.3996 160,86.5C 155.744,79.7504 152.244,72.5837 149.5,65C 150.979,62.0294 152.645,59.1961 154.5,56.5C 159.846,55.6778 164.18,57.3445 167.5,61.5C 167.11,65.3528 168.444,68.3528 171.5,70.5C 173.358,76.5609 175.524,82.5609 178,88.5C 178.708,89.3805 179.542,90.0472 180.5,90.5C 181.215,96.7059 183.382,102.373 187,107.5C 187.155,109.856 187.155,112.189 187,114.5C 188.926,116.539 191.093,118.206 193.5,119.5C 194.453,124.259 195.62,128.926 197,133.5C 199.436,136.094 201.603,138.761 203.5,141.5C 204.736,143.649 205.736,145.982 206.5,148.5C 206.97,149.693 207.97,150.36 209.5,150.5C 214.417,150.045 219.084,149.045 223.5,147.5C 226.589,146.215 229.922,145.549 233.5,145.5C 235.167,145.5 236.833,145.5 238.5,145.5C 238.333,102.165 238.5,58.8321 239,15.5C 239.333,12.8333 239.667,10.1667 240,7.5C 241.627,6.46773 242.793,5.1344 243.5,3.5 Z"/></g>
<g><path style="opacity:0.55" fill="#fef1d8" d="M 243.5,3.5 C 242.793,5.1344 241.627,6.46773 240,7.5C 239.667,10.1667 239.333,12.8333 239,15.5C 238.5,58.8321 238.333,102.165 238.5,145.5C 236.833,145.5 235.167,145.5 233.5,145.5C 234.531,144.751 235.698,144.085 237,143.5C 237.333,98.5 237.667,53.5 238,8.5C 239.076,5.92096 240.909,4.25429 243.5,3.5 Z"/></g>
<g><path style="opacity:0.674" fill="#fceccf" d="M 299.5,134.5 C 297.768,140.039 296.434,145.706 295.5,151.5C 293.979,152.937 292.145,153.604 290,153.5C 286.767,153.066 283.6,152.399 280.5,151.5C 280.082,150.778 279.416,150.278 278.5,150C 270.853,148.671 263.186,147.504 255.5,146.5C 256.651,101.862 256.818,57.1955 256,12.5C 255.764,10.236 255.264,8.06934 254.5,6C 251.077,4.09614 247.41,3.2628 243.5,3.5C 247.013,1.41569 250.68,1.58236 254.5,4C 255.701,4.90252 256.535,6.06919 257,7.5C 257.333,52.8333 257.667,98.1667 258,143.5C 268.698,145.908 279.365,148.575 290,151.5C 290.772,151.355 291.439,151.022 292,150.5C 294.275,144.955 296.775,139.622 299.5,134.5 Z"/></g>
<g><path style="opacity:0.867" fill="#faf1db" d="M 167.5,61.5 C 164.18,57.3445 159.846,55.6778 154.5,56.5C 157.268,54.1003 160.268,53.9336 163.5,56C 165.452,57.4119 166.785,59.2453 167.5,61.5 Z"/></g>
<g><path style="opacity:0.965" fill="#faeed3" d="M 167.5,61.5 C 169.592,64.0884 170.925,67.0884 171.5,70.5C 168.444,68.3528 167.11,65.3528 167.5,61.5 Z"/></g>
<g><path style="opacity:0.659" fill="#fbf2db" d="M 344.5,79.5 C 345.106,75.2667 346.606,71.2667 349,67.5C 349.6,57.9496 345.1,54.2829 335.5,56.5C 346.337,52.8189 351.17,56.8189 350,68.5C 348.435,72.4022 346.602,76.0688 344.5,79.5 Z"/></g>
<g><path style="opacity:1" fill="#fcf0d5" d="M 171.5,70.5 C 175.011,76.861 178.011,83.5277 180.5,90.5C 179.542,90.0472 178.708,89.3805 178,88.5C 175.524,82.5609 173.358,76.5609 171.5,70.5 Z"/></g>
<g><path style="opacity:0.945" fill="#fbf0d8" d="M 421.5,126.5 C 423.043,124.072 424.043,121.406 424.5,118.5C 425.978,118.762 427.311,118.429 428.5,117.5C 435.156,110.177 441.822,102.843 448.5,95.5C 451.481,87.7905 448.981,83.1238 441,81.5C 437.934,82.0208 435.101,83.0208 432.5,84.5C 436.1,79.4311 440.767,78.2645 446.5,81C 451.547,85.6535 452.714,91.1535 450,97.5C 440.271,107.062 430.771,116.728 421.5,126.5 Z"/></g>
<g><path style="opacity:1" fill="#fbebcb" d="M 335.5,56.5 C 332.802,63.4471 329.635,70.1138 326,76.5C 324.439,79.659 324.272,82.8257 325.5,86C 323.862,86.242 322.362,87.0753 321,88.5C 319.956,90.7148 319.29,93.0481 319,95.5C 313.064,104.5 309.231,114.166 307.5,124.5C 311.099,124.262 311.433,125.262 308.5,127.5C 306.866,127.032 305.7,126.032 305,124.5C 304.623,125.942 303.79,126.942 302.5,127.5C 312.175,103.984 322.341,80.6509 333,57.5C 333.671,56.7476 334.504,56.4142 335.5,56.5 Z"/></g>
<g><path style="opacity:1" fill="#fbeed3" d="M 154.5,56.5 C 152.645,59.1961 150.979,62.0294 149.5,65C 152.244,72.5837 155.744,79.7504 160,86.5C 161.924,91.3996 163.424,96.3996 164.5,101.5C 159.065,90.7306 153.899,79.7306 149,68.5C 147.036,62.5389 148.869,58.5389 154.5,56.5 Z"/></g>
<g><path style="opacity:0.988" fill="#fcf0d8" d="M 96.5,115.5 C 94.2459,114.585 92.2459,113.252 90.5,111.5C 87.0371,107.536 83.3705,103.702 79.5,100C 76.2712,99.6437 74.7712,97.8103 75,94.5C 71.473,90.973 67.973,87.473 64.5,84C 60.8085,81.2266 56.8085,80.8933 52.5,83C 49.7845,86.9081 49.2845,91.0748 51,95.5C 57.1252,101.117 62.6252,107.117 67.5,113.5C 61.5353,108.036 55.7019,102.37 50,96.5C 46.5865,90.7152 47.4198,85.5485 52.5,81C 56.1361,79.1015 59.8027,79.1015 63.5,81C 74.8529,92.2451 85.8529,103.745 96.5,115.5 Z"/></g>
<g><path style="opacity:1" fill="#faeccd" d="M 344.5,79.5 C 339.262,93.5632 333.262,107.23 326.5,120.5C 328.791,109.373 332.958,99.0392 339,89.5C 339.333,87.1667 339.667,84.8333 340,82.5C 340.333,82.8333 340.667,83.1667 341,83.5C 342.405,82.2695 343.571,80.9361 344.5,79.5 Z"/></g>
<g><path style="opacity:1" fill="#fde6b7" d="M 335.5,56.5 C 345.1,54.2829 349.6,57.9496 349,67.5C 346.606,71.2667 345.106,75.2667 344.5,79.5C 343.571,80.9361 342.405,82.2695 341,83.5C 340.667,83.1667 340.333,82.8333 340,82.5C 339.667,84.8333 339.333,87.1667 339,89.5C 332.958,99.0392 328.791,109.373 326.5,120.5C 324.552,122.32 323.552,124.654 323.5,127.5C 320.847,129.848 319.513,132.848 319.5,136.5C 318.185,137.476 316.852,138.476 315.5,139.5C 314.117,143.75 313.117,148.083 312.5,152.5C 311.542,152.953 310.708,153.619 310,154.5C 309.689,156.556 309.189,158.556 308.5,160.5C 310.304,161.768 312.304,162.435 314.5,162.5C 314.833,162.5 315.167,162.5 315.5,162.5C 315.5,163.5 315.5,164.5 315.5,165.5C 320.928,167.393 325.594,170.559 329.5,175C 330.745,175.791 332.078,176.291 333.5,176.5C 333.833,176.5 334.167,176.5 334.5,176.5C 335.111,179.694 337.111,181.361 340.5,181.5C 344.16,178.009 347.994,174.676 352,171.5C 352.49,170.207 352.657,168.873 352.5,167.5C 358.758,162.583 364.758,157.249 370.5,151.5C 371.429,150.311 371.762,148.978 371.5,147.5C 372.873,147.657 374.207,147.49 375.5,147C 378.44,143.323 381.106,139.489 383.5,135.5C 388.756,131.585 393.756,127.252 398.5,122.5C 399.562,120.978 400.229,119.312 400.5,117.5C 406.742,112.764 412.576,107.431 418,101.5C 419.094,99.9221 419.928,98.2554 420.5,96.5C 425.167,93.8333 428.833,90.1667 431.5,85.5C 431.5,84.8333 431.833,84.5 432.5,84.5C 435.101,83.0208 437.934,82.0208 441,81.5C 448.981,83.1238 451.481,87.7905 448.5,95.5C 441.822,102.843 435.156,110.177 428.5,117.5C 427.311,118.429 425.978,118.762 424.5,118.5C 424.043,121.406 423.043,124.072 421.5,126.5C 421.5,127.167 421.167,127.5 420.5,127.5C 419.127,127.343 417.793,127.51 416.5,128C 414.176,130.504 412.509,133.337 411.5,136.5C 411.167,137.5 410.5,138.167 409.5,138.5C 407.883,139.038 406.216,139.371 404.5,139.5C 404.116,141.929 403.449,144.263 402.5,146.5C 401.448,146.351 400.448,146.517 399.5,147C 397.092,149.688 395.092,152.521 393.5,155.5C 392.448,155.351 391.448,155.517 390.5,156C 386.667,161.167 382.167,165.667 377,169.5C 375.331,171.169 374.498,173.169 374.5,175.5C 368.905,177.134 365.238,180.801 363.5,186.5C 361.5,189.167 359.167,191.5 356.5,193.5C 353.013,194.445 351.68,196.778 352.5,200.5C 353.5,200.5 354.5,200.5 355.5,200.5C 355.771,202.821 355.104,204.821 353.5,206.5C 354.776,207.645 356.109,207.645 357.5,206.5C 358.819,211.146 361.153,215.146 364.5,218.5C 366.192,219.969 368.192,220.635 370.5,220.5C 374.067,220.356 377.4,219.523 380.5,218C 379.833,217.667 379.167,217.333 378.5,217C 386.461,213.056 394.795,210.056 403.5,208C 404.551,206.615 405.884,205.615 407.5,205C 411.377,205.062 414.377,203.562 416.5,200.5C 423.355,198.411 430.355,196.911 437.5,196C 439.644,194.854 441.477,193.354 443,191.5C 447.607,190.146 451.773,188.146 455.5,185.5C 458.237,185.599 460.904,185.265 463.5,184.5C 464.713,187.225 466.546,189.559 469,191.5C 470.011,195.982 468.844,199.816 465.5,203C 462.981,203.586 460.981,204.753 459.5,206.5C 455.213,206.476 451.547,207.81 448.5,210.5C 445.083,210.023 442.416,211.023 440.5,213.5C 435.446,214.684 430.446,216.184 425.5,218C 424.944,218.383 424.611,218.883 424.5,219.5C 412.849,222.17 401.515,225.67 390.5,230C 389.619,230.708 388.953,231.542 388.5,232.5C 387.791,233.404 386.791,233.737 385.5,233.5C 383.801,233.34 382.134,233.506 380.5,234C 377.497,235.21 374.83,236.71 372.5,238.5C 371.791,239.404 370.791,239.737 369.5,239.5C 364.626,239.358 359.959,240.024 355.5,241.5C 355.82,238.102 355.487,234.768 354.5,231.5C 353.914,231.709 353.414,232.043 353,232.5C 352.506,230.866 352.34,229.199 352.5,227.5C 351.5,227.5 350.5,227.5 349.5,227.5C 348.973,224.769 348.14,222.102 347,219.5C 345.989,218.663 344.822,218.33 343.5,218.5C 342.989,213.104 340.323,209.437 335.5,207.5C 335.5,207.167 335.5,206.833 335.5,206.5C 335.262,203.931 333.929,202.265 331.5,201.5C 329.5,197.5 326.5,194.5 322.5,192.5C 321.089,190.086 319.089,188.419 316.5,187.5C 312.808,185.656 309.475,183.323 306.5,180.5C 305.969,178.376 304.635,176.876 302.5,176C 295.879,173.085 289.212,170.418 282.5,168C 274.621,165.82 266.621,164.32 258.5,163.5C 258.5,163.167 258.5,162.833 258.5,162.5C 261.305,161.681 264.305,161.181 267.5,161C 266.377,159.956 265.044,159.29 263.5,159C 266.446,158.194 269.112,156.861 271.5,155C 274.167,154.667 276.833,154.333 279.5,154C 281.619,153.658 281.953,152.825 280.5,151.5C 283.6,152.399 286.767,153.066 290,153.5C 292.145,153.604 293.979,152.937 295.5,151.5C 296.434,145.706 297.768,140.039 299.5,134.5C 299.935,131.843 300.935,129.509 302.5,127.5C 303.79,126.942 304.623,125.942 305,124.5C 305.7,126.032 306.866,127.032 308.5,127.5C 311.433,125.262 311.099,124.262 307.5,124.5C 309.231,114.166 313.064,104.5 319,95.5C 319.29,93.0481 319.956,90.7148 321,88.5C 322.362,87.0753 323.862,86.242 325.5,86C 324.272,82.8257 324.439,79.659 326,76.5C 329.635,70.1138 332.802,63.4471 335.5,56.5 Z"/></g>
<g><path style="opacity:0.973" fill="#fbf1d5" d="M 420.5,96.5 C 419.928,98.2554 419.094,99.9221 418,101.5C 412.576,107.431 406.742,112.764 400.5,117.5C 407.194,110.474 413.861,103.474 420.5,96.5 Z"/></g>
<g><path style="opacity:0.765" fill="#fef5dd" d="M 431.5,85.5 C 428.833,90.1667 425.167,93.8333 420.5,96.5C 423.833,92.5 427.5,88.8333 431.5,85.5 Z"/></g>
<g><path style="opacity:1" fill="#fbecca" d="M 180.5,90.5 C 185.398,99.8384 189.731,109.505 193.5,119.5C 191.093,118.206 188.926,116.539 187,114.5C 187.155,112.189 187.155,109.856 187,107.5C 183.382,102.373 181.215,96.7059 180.5,90.5 Z"/></g>
<g><path style="opacity:0.529" fill="#fef7ed" d="M 67.5,114.5 C 70.1667,115.167 71.8333,116.833 72.5,119.5C 70.5,118.167 68.8333,116.5 67.5,114.5 Z"/></g>
<g><path style="opacity:1" fill="#fbeecf" d="M 164.5,101.5 C 167.144,104.773 169.311,108.44 171,112.5C 171.667,113.833 172.333,113.833 173,112.5C 173.22,117.371 174.054,122.037 175.5,126.5C 171.041,118.576 167.375,110.243 164.5,101.5 Z"/></g>
<g><path style="opacity:1" fill="#f9ebc9" d="M 90.5,111.5 C 92.2459,113.252 94.2459,114.585 96.5,115.5C 101.491,120.792 106.491,126.125 111.5,131.5C 109.745,130.928 108.078,130.094 106.5,129C 104.5,126.667 102.5,124.333 100.5,122C 99.5,121.667 98.5,121.333 97.5,121C 94.9245,117.937 92.5912,114.771 90.5,111.5 Z"/></g>
<g><path style="opacity:1" fill="#fcefd2" d="M 72.5,119.5 C 75.6737,120.837 78.6737,122.504 81.5,124.5C 82.4519,126.045 82.7852,127.712 82.5,129.5C 78.8333,126.5 75.5,123.167 72.5,119.5 Z"/></g>
<g><path style="opacity:1" fill="#faeed4" d="M 400.5,117.5 C 400.229,119.312 399.562,120.978 398.5,122.5C 393.756,127.252 388.756,131.585 383.5,135.5C 389.195,129.474 394.861,123.474 400.5,117.5 Z"/></g>
<g><path style="opacity:0.529" fill="#fdf3da" d="M 326.5,120.5 C 326.293,123.241 325.293,125.574 323.5,127.5C 323.552,124.654 324.552,122.32 326.5,120.5 Z"/></g>
<g><path style="opacity:1" fill="#faeece" d="M 420.5,127.5 C 417.833,130.833 414.833,133.833 411.5,136.5C 412.509,133.337 414.176,130.504 416.5,128C 417.793,127.51 419.127,127.343 420.5,127.5 Z"/></g>
<g><path style="opacity:0.867" fill="#fbefd4" d="M 82.5,129.5 C 87.1667,132.167 90.8333,135.833 93.5,140.5C 89.5,137.167 85.8333,133.5 82.5,129.5 Z"/></g>
<g><path style="opacity:0.961" fill="#faedd1" d="M 175.5,127.5 C 179.683,129.402 181.349,132.735 180.5,137.5C 178.323,134.48 176.657,131.147 175.5,127.5 Z"/></g>
<g><path style="opacity:1" fill="#fbefda" d="M 323.5,127.5 C 322.958,130.912 321.625,133.912 319.5,136.5C 319.513,132.848 320.847,129.848 323.5,127.5 Z"/></g>
<g><path style="opacity:1" fill="#faeccd" d="M 193.5,119.5 C 197.344,126.527 200.677,133.86 203.5,141.5C 201.603,138.761 199.436,136.094 197,133.5C 195.62,128.926 194.453,124.259 193.5,119.5 Z"/></g>
<g><path style="opacity:0.788" fill="#fdf3de" d="M 111.5,131.5 C 115.833,135.167 119.833,139.167 123.5,143.5C 119.916,141.261 116.583,138.594 113.5,135.5C 112.37,134.378 111.703,133.044 111.5,131.5 Z"/></g>
<g><path style="opacity:0.725" fill="#fcf0d8" d="M 180.5,137.5 C 182.309,139.099 183.642,141.099 184.5,143.5C 185.452,145.045 185.785,146.712 185.5,148.5C 183.049,145.26 181.382,141.593 180.5,137.5 Z"/></g>
<g><path style="opacity:0.725" fill="#fcefd6" d="M 383.5,135.5 C 381.106,139.489 378.44,143.323 375.5,147C 374.207,147.49 372.873,147.657 371.5,147.5C 375.167,143.167 379.167,139.167 383.5,135.5 Z"/></g>
<g><path style="opacity:1" fill="#fcf0d3" d="M 409.5,138.5 C 407.628,141.582 405.295,144.249 402.5,146.5C 403.449,144.263 404.116,141.929 404.5,139.5C 406.216,139.371 407.883,139.038 409.5,138.5 Z"/></g>
<g><path style="opacity:1" fill="#faeccd" d="M 319.5,136.5 C 317.929,142.23 315.596,147.563 312.5,152.5C 313.117,148.083 314.117,143.75 315.5,139.5C 316.852,138.476 318.185,137.476 319.5,136.5 Z"/></g>
<g><path style="opacity:1" fill="#fbefd3" d="M 94.5,142.5 C 96.1439,142.286 97.6439,142.62 99,143.5C 100.869,146.571 103.203,149.238 106,151.5C 106.791,152.745 107.291,154.078 107.5,155.5C 102.833,151.5 98.5,147.167 94.5,142.5 Z"/></g>
<g><path style="opacity:0.914" fill="#fdf1d8" d="M 223.5,147.5 C 219.084,149.045 214.417,150.045 209.5,150.5C 207.97,150.36 206.97,149.693 206.5,148.5C 207.416,148.982 208.416,149.315 209.5,149.5C 214.111,148.398 218.778,147.731 223.5,147.5 Z"/></g>
<g><path style="opacity:0.749" fill="#fbf3d8" d="M 402.5,146.5 C 399.833,149.833 396.833,152.833 393.5,155.5C 395.092,152.521 397.092,149.688 399.5,147C 400.448,146.517 401.448,146.351 402.5,146.5 Z"/></g>
<g><path style="opacity:0.925" fill="#fcefd6" d="M 371.5,147.5 C 371.762,148.978 371.429,150.311 370.5,151.5C 364.758,157.249 358.758,162.583 352.5,167.5C 358.861,160.807 365.194,154.14 371.5,147.5 Z"/></g>
<g><path style="opacity:0.992" fill="#fdf1d7" d="M 312.5,152.5 C 312.276,154.787 311.609,156.953 310.5,159C 311.686,160.412 313.019,161.579 314.5,162.5C 312.304,162.435 310.304,161.768 308.5,160.5C 309.189,158.556 309.689,156.556 310,154.5C 310.708,153.619 311.542,152.953 312.5,152.5 Z"/></g>
<g><path style="opacity:1" fill="#fae7bf" d="M 258.5,162.5 C 258.5,162.833 258.5,163.167 258.5,163.5C 249.273,163.123 240.273,163.789 231.5,165.5C 228.411,166.785 225.078,167.451 221.5,167.5C 219.435,167.517 217.435,167.85 215.5,168.5C 219.439,166.98 223.439,165.147 227.5,163C 237.828,162.5 248.161,162.334 258.5,162.5 Z"/></g>
<g><path style="opacity:0.976" fill="#fbeed3" d="M 107.5,155.5 C 112.766,159.262 117.6,163.595 122,168.5C 122.483,169.448 122.649,170.448 122.5,171.5C 117.528,166.193 112.528,160.86 107.5,155.5 Z"/></g>
<g><path style="opacity:1" fill="#faeccd" d="M 185.5,148.5 C 188.087,150.868 189.753,153.868 190.5,157.5C 189.935,159.405 188.935,161.071 187.5,162.5C 182.201,165.152 177.201,168.319 172.5,172C 171.167,172.333 169.833,172.667 168.5,173C 165.833,175.746 163.167,178.413 160.5,181C 157.461,181.813 155.794,180.646 155.5,177.5C 156.794,178.29 157.961,179.29 159,180.5C 167.258,171.777 176.758,164.61 187.5,159C 188.022,158.439 188.355,157.772 188.5,157C 187.061,154.295 186.061,151.462 185.5,148.5 Z"/></g>
<g><path style="opacity:1" fill="#faeccc" d="M 127.5,148.5 C 136.867,156.866 145.534,165.866 153.5,175.5C 150.407,173.511 147.407,171.344 144.5,169C 142.211,166.508 139.877,164.008 137.5,161.5C 136.675,160.614 135.675,160.281 134.5,160.5C 134.465,156.453 132.465,153.786 128.5,152.5C 127.571,151.311 127.238,149.978 127.5,148.5 Z"/></g>
<g><path style="opacity:1" fill="#fbedd2" d="M 258.5,163.5 C 266.621,164.32 274.621,165.82 282.5,168C 289.212,170.418 295.879,173.085 302.5,176C 304.635,176.876 305.969,178.376 306.5,180.5C 283.118,167.69 258.118,162.69 231.5,165.5C 240.273,163.789 249.273,163.123 258.5,163.5 Z"/></g>
<g><path style="opacity:0.208" fill="#fdf1dc" d="M 315.5,162.5 C 322.263,166.211 328.263,170.878 333.5,176.5C 332.078,176.291 330.745,175.791 329.5,175C 325.594,170.559 320.928,167.393 315.5,165.5C 315.5,164.5 315.5,163.5 315.5,162.5 Z"/></g>
<g><path style="opacity:0.973" fill="#fbf0d7" d="M 393.5,155.5 C 387.139,162.193 380.806,168.86 374.5,175.5C 374.498,173.169 375.331,171.169 377,169.5C 382.167,165.667 386.667,161.167 390.5,156C 391.448,155.517 392.448,155.351 393.5,155.5 Z"/></g>
<g><path style="opacity:0.969" fill="#fbeed2" d="M 221.5,167.5 C 212.341,170.558 203.341,174.225 194.5,178.5C 194.414,177.504 194.748,176.671 195.5,176C 198.023,175.482 200.023,174.148 201.5,172C 206.31,171.34 210.977,170.173 215.5,168.5C 217.435,167.85 219.435,167.517 221.5,167.5 Z"/></g>
<g><path style="opacity:0.816" fill="#fcf1db" d="M 122.5,171.5 C 127.719,173.596 131.386,177.263 133.5,182.5C 129.5,179.167 125.833,175.5 122.5,171.5 Z"/></g>
<g><path style="opacity:0.969" fill="#fbeed4" d="M 352.5,167.5 C 352.657,168.873 352.49,170.207 352,171.5C 347.994,174.676 344.16,178.009 340.5,181.5C 337.111,181.361 335.111,179.694 334.5,176.5C 336.175,178.002 338.008,179.335 340,180.5C 344.398,176.271 348.564,171.938 352.5,167.5 Z"/></g>
<g><path style="opacity:0.816" fill="#fcefd7" d="M 194.5,178.5 C 189.523,181.8 184.523,185.133 179.5,188.5C 179.859,186.629 180.859,185.129 182.5,184C 185.023,183.482 187.023,182.148 188.5,180C 190.345,178.872 192.345,178.372 194.5,178.5 Z"/></g>
<g><path style="opacity:1" fill="#fcefd3" d="M 374.5,175.5 C 371.167,179.5 367.5,183.167 363.5,186.5C 365.238,180.801 368.905,177.134 374.5,175.5 Z"/></g>
<g><path style="opacity:0.867" fill="#fcf2e1" d="M 463.5,184.5 C 460.904,185.265 458.237,185.599 455.5,185.5C 457.487,184.657 459.654,183.99 462,183.5C 462.765,183.57 463.265,183.903 463.5,184.5 Z"/></g>
<g><path style="opacity:0.867" fill="#fdf4e0" d="M 316.5,187.5 C 319.089,188.419 321.089,190.086 322.5,192.5C 319.911,191.581 317.911,189.914 316.5,187.5 Z"/></g>
<g><path style="opacity:1" fill="#f8ecd0" d="M 41.5,187.5 C 38.0173,187.691 34.6839,188.357 31.5,189.5C 32.0577,188.21 33.0577,187.377 34.5,187C 37.0385,186.204 39.3718,186.371 41.5,187.5 Z"/></g>
<g><path style="opacity:1" fill="#faecd1" d="M 463.5,184.5 C 468.901,185.733 471.901,189.233 472.5,195C 471.132,202.202 466.799,206.035 459.5,206.5C 460.981,204.753 462.981,203.586 465.5,203C 468.844,199.816 470.011,195.982 469,191.5C 466.546,189.559 464.713,187.225 463.5,184.5 Z"/></g>
<g><path style="opacity:1" fill="#faebca" d="M 133.5,182.5 C 135.544,183.031 137.211,184.198 138.5,186C 140.112,186.72 141.612,186.554 143,185.5C 143.495,187.473 143.662,189.473 143.5,191.5C 146.68,191.176 147.847,192.51 147,195.5C 144.667,199.167 142.333,202.833 140,206.5C 138.226,207.965 136.392,209.298 134.5,210.5C 137.19,204.965 140.523,199.799 144.5,195C 140.997,190.665 137.33,186.499 133.5,182.5 Z"/></g>
<g><path style="opacity:0.922" fill="#fcf0d6" d="M 322.5,192.5 C 326.5,194.5 329.5,197.5 331.5,201.5C 328.167,198.833 325.167,195.833 322.5,192.5 Z"/></g>
<g><path style="opacity:1" fill="#faeccf" d="M 41.5,187.5 C 54.4607,191.595 67.1274,196.262 79.5,201.5C 77.4727,201.662 75.4727,201.495 73.5,201C 67.4539,198.236 61.1206,196.236 54.5,195C 50.1418,192.396 45.8085,189.896 41.5,187.5 Z"/></g>
<g><path style="opacity:0.949" fill="#fceed0" d="M 455.5,185.5 C 451.773,188.146 447.607,190.146 443,191.5C 441.477,193.354 439.644,194.854 437.5,196C 430.355,196.911 423.355,198.411 416.5,200.5C 429.322,195.264 442.322,190.264 455.5,185.5 Z"/></g>
<g><path style="opacity:1" fill="#fceccd" d="M 356.5,193.5 C 356.297,195.044 355.63,196.378 354.5,197.5C 355.127,198.417 355.461,199.417 355.5,200.5C 354.5,200.5 353.5,200.5 352.5,200.5C 351.68,196.778 353.013,194.445 356.5,193.5 Z"/></g>
<g><path style="opacity:0.671" fill="#fcf1db" d="M 331.5,201.5 C 333.929,202.265 335.262,203.931 335.5,206.5C 333.413,205.415 332.08,203.749 331.5,201.5 Z"/></g>
<g><path style="opacity:0.969" fill="#fceed5" d="M 459.5,206.5 C 456.203,208.601 452.537,209.935 448.5,210.5C 451.547,207.81 455.213,206.476 459.5,206.5 Z"/></g>
<g><path style="opacity:1" fill="#fcefd3" d="M 179.5,188.5 C 166.926,199.401 156.593,212.067 148.5,226.5C 147.697,222.831 148.864,220.164 152,218.5C 154.22,215.46 155.72,212.127 156.5,208.5C 157.675,208.719 158.675,208.386 159.5,207.5C 160.124,205.246 161.457,203.579 163.5,202.5C 164.246,201.264 164.579,199.93 164.5,198.5C 167.91,198.616 169.244,196.95 168.5,193.5C 170.929,193.116 173.263,192.449 175.5,191.5C 175.5,190.5 175.5,189.5 175.5,188.5C 176.833,188.5 178.167,188.5 179.5,188.5 Z"/></g>
<g><path style="opacity:1" fill="#fae9c0" d="M 82.5,202.5 C 87.4379,203.646 92.1046,205.313 96.5,207.5C 100.48,210.246 104.813,212.246 109.5,213.5C 104.817,212.926 100.15,212.26 95.5,211.5C 95.5,210.5 95.5,209.5 95.5,208.5C 90.2407,208.369 85.9074,206.369 82.5,202.5 Z"/></g>
<g><path style="opacity:0.98" fill="#fbefd4" d="M 31.5,189.5 C 28.8767,194.303 28.8767,199.136 31.5,204C 38.0677,206.709 44.7343,209.043 51.5,211C 53.9929,212.419 56.3263,213.919 58.5,215.5C 49.359,212.796 40.359,209.629 31.5,206C 27.6729,202.692 26.5063,198.526 28,193.5C 28.66,191.676 29.8267,190.343 31.5,189.5 Z"/></g>
<g><path style="opacity:0.541" fill="#fdf2db" d="M 96.5,207.5 C 102.129,208.929 107.463,210.929 112.5,213.5C 111.5,213.5 110.5,213.5 109.5,213.5C 104.813,212.246 100.48,210.246 96.5,207.5 Z"/></g>
<g><path style="opacity:0.333" fill="#fcf1d8" d="M 448.5,210.5 C 446.11,212.02 443.443,213.02 440.5,213.5C 442.416,211.023 445.083,210.023 448.5,210.5 Z"/></g>
<g><path style="opacity:0.851" fill="#fdefd2" d="M 335.5,207.5 C 340.323,209.437 342.989,213.104 343.5,218.5C 340.865,214.857 338.199,211.19 335.5,207.5 Z"/></g>
<g><path style="opacity:0.984" fill="#fbf1d7" d="M 65.5,217.5 C 69.4748,217.486 72.8082,218.819 75.5,221.5C 71.8512,220.733 68.5178,219.4 65.5,217.5 Z"/></g>
<g><path style="opacity:0.769" fill="#fcf3dc" d="M 440.5,213.5 C 435.463,216.071 430.129,218.071 424.5,219.5C 424.611,218.883 424.944,218.383 425.5,218C 430.446,216.184 435.446,214.684 440.5,213.5 Z"/></g>
<g><path style="opacity:0.751" fill="#fcefd1" d="M 134.5,210.5 C 134.067,213.166 133.567,215.832 133,218.5C 132.196,219.804 131.029,220.471 129.5,220.5C 123.384,218.908 117.717,216.574 112.5,213.5C 117.807,215.148 123.14,216.815 128.5,218.5C 130.984,216.2 132.984,213.533 134.5,210.5 Z"/></g>
<g><path style="opacity:1" fill="#faeac7" d="M 355.5,200.5 C 359.476,205.768 362.976,211.434 366,217.5C 366.725,218.059 367.558,218.392 368.5,218.5C 384.441,212.298 400.441,206.298 416.5,200.5C 414.377,203.562 411.377,205.062 407.5,205C 405.884,205.615 404.551,206.615 403.5,208C 394.795,210.056 386.461,213.056 378.5,217C 379.167,217.333 379.833,217.667 380.5,218C 377.4,219.523 374.067,220.356 370.5,220.5C 368.192,220.635 366.192,219.969 364.5,218.5C 361.153,215.146 358.819,211.146 357.5,206.5C 356.109,207.645 354.776,207.645 353.5,206.5C 355.104,204.821 355.771,202.821 355.5,200.5 Z"/></g>
<g><path style="opacity:0.976" fill="#fbefd6" d="M 76.5,221.5 C 80.1419,222.08 83.8086,222.58 87.5,223C 88.305,224.113 88.9717,225.279 89.5,226.5C 84.9787,225.063 80.6453,223.396 76.5,221.5 Z"/></g>
<g><path style="opacity:1" fill="#fceed3" d="M 424.5,219.5 C 412.772,224.354 400.772,228.687 388.5,232.5C 388.953,231.542 389.619,230.708 390.5,230C 401.515,225.67 412.849,222.17 424.5,219.5 Z"/></g>
<g><path style="opacity:1" fill="#fae9c6" d="M 343.5,218.5 C 344.822,218.33 345.989,218.663 347,219.5C 348.14,222.102 348.973,224.769 349.5,227.5C 350.5,227.5 351.5,227.5 352.5,227.5C 352.34,229.199 352.506,230.866 353,232.5C 353.414,232.043 353.914,231.709 354.5,231.5C 355.487,234.768 355.82,238.102 355.5,241.5C 359.959,240.024 364.626,239.358 369.5,239.5C 365.143,241.574 360.643,243.574 356,245.5C 351.322,236.807 347.155,227.807 343.5,218.5 Z"/></g>
<g><path style="opacity:0.902" fill="#fbefd5" d="M 90.5,226.5 C 93.8738,226.674 97.2072,227.174 100.5,228C 112.735,233.579 125.402,238.079 138.5,241.5C 139.772,241.43 140.938,241.097 142,240.5C 142.745,235.935 144.078,231.602 146,227.5C 146.671,226.748 147.504,226.414 148.5,226.5C 145.068,232.368 143.068,238.702 142.5,245.5C 125.093,239.144 107.759,232.811 90.5,226.5 Z"/></g>
<g><path style="opacity:0.922" fill="#fcf1da" d="M 385.5,233.5 C 381.478,235.734 377.144,237.401 372.5,238.5C 374.83,236.71 377.497,235.21 380.5,234C 382.134,233.506 383.801,233.34 385.5,233.5 Z"/></g>
<g><path style="opacity:1" fill="#90c8c8" d="M 498.5,250.5 C 498.44,251.043 498.107,251.376 497.5,251.5C 496.186,250.687 495.019,249.687 494,248.5C 492.644,249.38 491.144,249.714 489.5,249.5C 489.5,250.5 489.5,251.5 489.5,252.5C 488.127,252.657 486.793,252.49 485.5,252C 485.616,250.732 485.949,249.398 486.5,248C 492.75,247.892 493.083,246.726 487.5,244.5C 472.521,246.668 457.521,249.002 442.5,251.5C 457.175,247.55 472.175,244.55 487.5,242.5C 493.3,242.54 496.966,245.206 498.5,250.5 Z"/></g>
<g><path style="opacity:1" fill="#95c8c7" d="M 441.5,251.5 C 436.225,253.287 430.891,255.454 425.5,258C 422.518,258.498 419.518,258.665 416.5,258.5C 424.519,255.409 432.852,253.076 441.5,251.5 Z"/></g>
<g><path style="opacity:1" fill="#9bcacb" d="M 416.5,258.5 C 413.749,260.975 410.416,261.975 406.5,261.5C 409.505,259.723 412.838,258.723 416.5,258.5 Z"/></g>
<g><path style="opacity:1" fill="#aad3d3" d="M 495.5,260.5 C 491.837,262.416 487.837,263.416 483.5,263.5C 486.931,260.886 490.931,259.886 495.5,260.5 Z"/></g>
<g><path style="opacity:1" fill="#7cc4c5" d="M 146.5,267.5 C 147.635,269.213 149.302,269.88 151.5,269.5C 151.5,270.5 151.5,271.5 151.5,272.5C 157.761,271.358 163.094,272.858 167.5,277C 175.794,278.807 184.128,280.307 192.5,281.5C 195.38,281.94 198.046,282.94 200.5,284.5C 200.389,285.117 200.056,285.617 199.5,286C 202.511,286.743 205.178,288.076 207.5,290C 210.117,290.822 212.784,291.322 215.5,291.5C 216.492,291.328 217.158,291.662 217.5,292.5C 217.967,295.297 219.633,296.631 222.5,296.5C 222.46,300.469 224.126,301.469 227.5,299.5C 229.777,300.478 232.11,301.145 234.5,301.5C 234.833,301.5 235.167,301.5 235.5,301.5C 235.5,302.5 235.5,303.5 235.5,304.5C 239.553,307.021 243.886,309.188 248.5,311C 250.179,313.565 250.846,316.398 250.5,319.5C 249.178,319.67 248.011,319.337 247,318.5C 247.109,322.13 245.442,324.13 242,324.5C 238.736,322.643 235.236,321.643 231.5,321.5C 230.294,318.702 228.294,316.535 225.5,315C 221.3,314.059 217.3,312.559 213.5,310.5C 212.289,309.726 212.289,308.893 213.5,308C 210.843,307.825 208.176,307.992 205.5,308.5C 202.982,307.736 200.649,306.736 198.5,305.5C 195.987,302.569 192.653,301.235 188.5,301.5C 187.402,300.603 187.402,299.77 188.5,299C 180.53,298.778 179.863,297.111 186.5,294C 182.944,293.315 179.611,293.815 176.5,295.5C 171.5,293.106 166.167,291.773 160.5,291.5C 159.986,289.561 158.653,288.561 156.5,288.5C 148.637,286.252 140.637,284.918 132.5,284.5C 130.123,283.113 127.457,282.279 124.5,282C 125.5,281.667 126.5,281.333 127.5,281C 99.2107,278.644 70.8774,277.978 42.5,279C 29.7665,282.924 16.7665,284.757 3.5,284.5C 1.96995,283.789 0.636613,282.789 -0.5,281.5C -0.5,279.833 -0.5,278.167 -0.5,276.5C 2.05295,271.797 6.05295,269.297 11.5,269C 12.5707,268.148 13.5707,267.315 14.5,266.5C 58.4656,257.069 102.466,257.402 146.5,267.5 Z"/></g>
<g><path style="opacity:0.949" fill="#b3d6d7" d="M 481.5,263.5 C 478.411,264.785 475.078,265.451 471.5,265.5C 471.611,264.883 471.944,264.383 472.5,264C 475.482,263.502 478.482,263.335 481.5,263.5 Z"/></g>
<g><path style="opacity:1" fill="#9fd0cf" d="M 465.5,266.5 C 454.281,269.136 442.948,271.803 431.5,274.5C 435.852,271.679 440.518,269.346 445.5,267.5C 446.772,268.046 448.106,268.379 449.5,268.5C 454.676,266.816 460.01,266.15 465.5,266.5 Z"/></g>
<g><path style="opacity:1" fill="#99cbcc" d="M 14.5,266.5 C 13.5707,267.315 12.5707,268.148 11.5,269C 6.05295,269.297 2.05295,271.797 -0.5,276.5C -0.5,275.167 -0.5,273.833 -0.5,272.5C 0.646381,270.525 2.31305,269.025 4.5,268C 7.79284,267.174 11.1262,266.674 14.5,266.5 Z"/></g>
<g><path style="opacity:0.965" fill="#9fcdcc" d="M 383.5,269.5 C 380.244,271.556 376.744,273.556 373,275.5C 372.329,274.748 371.496,274.414 370.5,274.5C 374.534,272.263 378.868,270.596 383.5,269.5 Z"/></g>
<g><path style="opacity:1" fill="#a6d2d1" d="M 431.5,274.5 C 427.313,275.969 422.98,277.302 418.5,278.5C 419.122,276.665 420.456,275.498 422.5,275C 425.482,274.502 428.482,274.335 431.5,274.5 Z"/></g>
<g><path style="opacity:1" fill="#8fcac8" d="M 146.5,267.5 C 162.36,270.79 177.694,275.456 192.5,281.5C 184.128,280.307 175.794,278.807 167.5,277C 163.094,272.858 157.761,271.358 151.5,272.5C 151.5,271.5 151.5,270.5 151.5,269.5C 149.302,269.88 147.635,269.213 146.5,267.5 Z"/></g>
<g><path style="opacity:1" fill="#7bc4c5" d="M 498.5,250.5 C 498.833,250.5 499.167,250.5 499.5,250.5C 499.5,252.5 499.5,254.5 499.5,256.5C 498.527,258.139 497.194,259.473 495.5,260.5C 490.931,259.886 486.931,260.886 483.5,263.5C 482.833,263.5 482.167,263.5 481.5,263.5C 478.482,263.335 475.482,263.502 472.5,264C 471.944,264.383 471.611,264.883 471.5,265.5C 469.621,266.341 467.621,266.675 465.5,266.5C 460.01,266.15 454.676,266.816 449.5,268.5C 448.106,268.379 446.772,268.046 445.5,267.5C 440.518,269.346 435.852,271.679 431.5,274.5C 428.482,274.335 425.482,274.502 422.5,275C 420.456,275.498 419.122,276.665 418.5,278.5C 412.907,280.364 407.241,282.03 401.5,283.5C 397.169,282.749 393.836,284.083 391.5,287.5C 391.167,287.5 390.833,287.5 390.5,287.5C 388.143,287.337 385.81,287.503 383.5,288C 383.833,288.333 384.167,288.667 384.5,289C 382.563,289.122 381.23,289.955 380.5,291.5C 378.143,291.337 375.81,291.503 373.5,292C 370.453,295.126 366.953,295.959 363,294.5C 362.51,295.793 362.343,297.127 362.5,298.5C 360.801,298.34 359.134,298.506 357.5,299C 357.833,299.333 358.167,299.667 358.5,300C 356.881,300.236 355.881,301.069 355.5,302.5C 353.473,302.338 351.473,302.505 349.5,303C 350.598,303.77 350.598,304.603 349.5,305.5C 348.486,306.674 347.153,307.34 345.5,307.5C 342.027,307.576 338.694,308.242 335.5,309.5C 335.5,310.5 335.5,311.5 335.5,312.5C 332.794,312.575 330.127,312.908 327.5,313.5C 327.5,314.5 327.5,315.5 327.5,316.5C 323.455,317.626 319.455,318.959 315.5,320.5C 315.5,321.5 315.5,322.5 315.5,323.5C 312.833,324.167 310.167,324.833 307.5,325.5C 307.5,326.833 307.5,328.167 307.5,329.5C 307.167,329.5 306.833,329.5 306.5,329.5C 303.353,329.737 300.353,330.57 297.5,332C 297.957,332.414 298.291,332.914 298.5,333.5C 297.271,334.281 295.938,334.781 294.5,335C 295.252,335.671 295.586,336.504 295.5,337.5C 294.395,338.6 293.062,339.267 291.5,339.5C 288.535,338.436 286.202,339.436 284.5,342.5C 283.914,342.291 283.414,341.957 283,341.5C 282.51,342.793 282.343,344.127 282.5,345.5C 279.857,346.64 277.191,347.974 274.5,349.5C 271.987,351.328 270.321,353.661 269.5,356.5C 267.116,358.885 264.45,360.885 261.5,362.5C 259.5,362.833 257.5,363.167 255.5,363.5C 255.5,364.833 255.5,366.167 255.5,367.5C 253.5,367.5 251.5,367.5 249.5,367.5C 249.762,368.978 249.429,370.311 248.5,371.5C 246.207,373.085 243.873,374.585 241.5,376C 242.337,377.011 242.67,378.178 242.5,379.5C 240.694,376.662 239.694,376.995 239.5,380.5C 236.679,380.316 235.012,381.649 234.5,384.5C 232.577,385.308 230.577,385.808 228.5,386C 231.332,387.908 230.999,388.741 227.5,388.5C 227.5,389.5 227.5,390.5 227.5,391.5C 226.167,391.5 224.833,391.5 223.5,391.5C 223.5,392.833 223.5,394.167 223.5,395.5C 222.178,395.33 221.011,395.663 220,396.5C 219.535,397.931 218.701,399.097 217.5,400C 218.252,400.671 218.586,401.504 218.5,402.5C 216.5,405.167 214.167,407.5 211.5,409.5C 210.504,409.586 209.671,409.252 209,408.5C 206.974,412.026 204.141,414.693 200.5,416.5C 200.833,417.167 201.167,417.833 201.5,418.5C 200.147,419.524 199.48,420.857 199.5,422.5C 198.5,422.5 197.5,422.5 196.5,422.5C 196.5,423.833 196.5,425.167 196.5,426.5C 193.557,425.741 191.89,427.074 191.5,430.5C 188.079,430.238 187.079,431.572 188.5,434.5C 187.675,435.386 186.675,435.719 185.5,435.5C 185.167,437.5 184.833,439.5 184.5,441.5C 183.167,441.5 181.833,441.5 180.5,441.5C 180.657,445.769 178.657,448.269 174.5,449C 175.731,450.183 175.731,451.349 174.5,452.5C 173.572,450.665 172.406,450.332 171,451.5C 170.689,452.742 171.189,453.742 172.5,454.5C 171.754,455.736 171.421,457.07 171.5,458.5C 171.5,458.833 171.5,459.167 171.5,459.5C 170.07,459.421 168.736,459.754 167.5,460.5C 165.664,463.252 164.664,466.252 164.5,469.5C 164.5,470.167 164.167,470.5 163.5,470.5C 158.877,472.93 153.877,474.597 148.5,475.5C 149.054,469.651 152.388,466.484 158.5,466C 157.391,465.362 156.225,464.862 155,464.5C 152.566,465.322 150.066,465.656 147.5,465.5C 147.5,467.167 147.5,468.833 147.5,470.5C 146.5,470.5 145.5,470.5 144.5,470.5C 144.833,467.833 145.167,465.167 145.5,462.5C 145.932,461.29 146.599,460.29 147.5,459.5C 148.906,459.027 149.573,458.027 149.5,456.5C 151.763,451.635 154.763,447.302 158.5,443.5C 160.9,441.704 162.567,439.37 163.5,436.5C 165.111,432.949 167.444,429.949 170.5,427.5C 172.722,425.602 175.055,423.769 177.5,422C 177.167,421.667 176.833,421.333 176.5,421C 179.594,420.529 181.261,418.696 181.5,415.5C 187.108,410.729 192.108,405.562 196.5,400C 195.748,399.329 195.414,398.496 195.5,397.5C 197.255,396.928 198.922,396.094 200.5,395C 202.684,390.808 206.017,388.142 210.5,387C 211.5,385.333 212.5,383.667 213.5,382C 217.039,381.664 219.206,379.831 220,376.5C 224.192,374.316 226.858,370.983 228,366.5C 230.667,363.833 233.333,361.167 236,358.5C 236.718,359.451 237.551,359.617 238.5,359C 240.412,356.039 243.079,354.039 246.5,353C 249.621,350.442 252.287,347.442 254.5,344C 256.5,343.667 258.5,343.333 260.5,343C 258.519,342.395 258.185,341.395 259.5,340C 260.793,339.51 262.127,339.343 263.5,339.5C 263.615,337.053 264.615,335.053 266.5,333.5C 269.37,332.567 271.704,330.9 273.5,328.5C 275.975,325.759 278.975,323.759 282.5,322.5C 289.388,320.137 295.721,316.637 301.5,312C 302.252,311.329 302.586,310.496 302.5,309.5C 304.482,309.005 306.482,308.505 308.5,308C 311.116,305.315 314.283,303.482 318,302.5C 319.678,304.282 321.511,304.615 323.5,303.5C 322.619,302.029 321.286,301.196 319.5,301C 322.039,299.279 324.372,297.446 326.5,295.5C 328.181,293.992 330.181,292.992 332.5,292.5C 337.158,293.486 340.824,292.152 343.5,288.5C 348.431,286.548 352.764,283.881 356.5,280.5C 360.866,277.988 365.533,275.988 370.5,274.5C 371.496,274.414 372.329,274.748 373,275.5C 376.744,273.556 380.244,271.556 383.5,269.5C 390.803,266.064 398.47,263.398 406.5,261.5C 410.416,261.975 413.749,260.975 416.5,258.5C 419.518,258.665 422.518,258.498 425.5,258C 430.891,255.454 436.225,253.287 441.5,251.5C 441.833,251.5 442.167,251.5 442.5,251.5C 457.521,249.002 472.521,246.668 487.5,244.5C 493.083,246.726 492.75,247.892 486.5,248C 485.949,249.398 485.616,250.732 485.5,252C 486.793,252.49 488.127,252.657 489.5,252.5C 489.5,251.5 489.5,250.5 489.5,249.5C 491.144,249.714 492.644,249.38 494,248.5C 495.019,249.687 496.186,250.687 497.5,251.5C 498.107,251.376 498.44,251.043 498.5,250.5 Z"/></g>
<g><path style="opacity:1" fill="#98cbca" d="M 132.5,284.5 C 91.7962,277.087 51.2962,278.087 11,287.5C 7.95644,287.548 5.45644,286.548 3.5,284.5C 16.7665,284.757 29.7665,282.924 42.5,279C 70.8774,277.978 99.2107,278.644 127.5,281C 126.5,281.333 125.5,281.667 124.5,282C 127.457,282.279 130.123,283.113 132.5,284.5 Z"/></g>
<g><path style="opacity:1" fill="#aad4d2" d="M 401.5,283.5 C 398.322,285.009 394.989,286.342 391.5,287.5C 393.836,284.083 397.169,282.749 401.5,283.5 Z"/></g>
<g><path style="opacity:1" fill="#9fcecd" d="M 200.5,284.5 C 205.689,286.597 210.689,288.93 215.5,291.5C 212.784,291.322 210.117,290.822 207.5,290C 205.178,288.076 202.511,286.743 199.5,286C 200.056,285.617 200.389,285.117 200.5,284.5 Z"/></g>
<g><path style="opacity:1" fill="#95cac9" d="M 132.5,284.5 C 140.637,284.918 148.637,286.252 156.5,288.5C 158.653,288.561 159.986,289.561 160.5,291.5C 150.986,289.455 141.653,287.122 132.5,284.5 Z"/></g>
<g><path style="opacity:1" fill="#a6d4d3" d="M 390.5,287.5 C 387.46,289.346 384.127,290.679 380.5,291.5C 381.23,289.955 382.563,289.122 384.5,289C 384.167,288.667 383.833,288.333 383.5,288C 385.81,287.503 388.143,287.337 390.5,287.5 Z"/></g>
<g><path style="opacity:1" fill="#8fc5c5" d="M 356.5,280.5 C 352.764,283.881 348.431,286.548 343.5,288.5C 340.824,292.152 337.158,293.486 332.5,292.5C 340.123,287.946 348.123,283.946 356.5,280.5 Z"/></g>
<g><path style="opacity:1" fill="#8ec7c7" d="M 160.5,291.5 C 166.167,291.773 171.5,293.106 176.5,295.5C 179.611,293.815 182.944,293.315 186.5,294C 179.863,297.111 180.53,298.778 188.5,299C 187.402,299.77 187.402,300.603 188.5,301.5C 179.016,298.341 169.683,295.007 160.5,291.5 Z"/></g>
<g><path style="opacity:1" fill="#9dcfcf" d="M 380.5,291.5 C 372.327,295.343 363.993,299.01 355.5,302.5C 355.881,301.069 356.881,300.236 358.5,300C 358.167,299.667 357.833,299.333 357.5,299C 359.134,298.506 360.801,298.34 362.5,298.5C 362.343,297.127 362.51,295.793 363,294.5C 366.953,295.959 370.453,295.126 373.5,292C 375.81,291.503 378.143,291.337 380.5,291.5 Z"/></g>
<g><path style="opacity:1" fill="#92c9c9" d="M 217.5,292.5 C 223.65,294.74 229.316,297.74 234.5,301.5C 232.11,301.145 229.777,300.478 227.5,299.5C 224.126,301.469 222.46,300.469 222.5,296.5C 219.633,296.631 217.967,295.297 217.5,292.5 Z"/></g>
<g><path style="opacity:1" fill="#8cc6c6" d="M 326.5,295.5 C 324.372,297.446 322.039,299.279 319.5,301C 321.286,301.196 322.619,302.029 323.5,303.5C 321.511,304.615 319.678,304.282 318,302.5C 314.283,303.482 311.116,305.315 308.5,308C 306.482,308.505 304.482,309.005 302.5,309.5C 309.836,303.827 317.836,299.161 326.5,295.5 Z"/></g>
<g><path style="opacity:0.998" fill="#9acbcc" d="M 188.5,301.5 C 192.653,301.235 195.987,302.569 198.5,305.5C 194.873,304.679 191.54,303.346 188.5,301.5 Z"/></g>
<g><path style="opacity:1" fill="#a9dad6" d="M 355.5,302.5 C 353.819,304.008 351.819,305.008 349.5,305.5C 350.598,304.603 350.598,303.77 349.5,303C 351.473,302.505 353.473,302.338 355.5,302.5 Z"/></g>
<g><path style="opacity:1" fill="#9dcecf" d="M 345.5,307.5 C 342.485,309.674 339.151,311.341 335.5,312.5C 335.5,311.5 335.5,310.5 335.5,309.5C 338.694,308.242 342.027,307.576 345.5,307.5 Z"/></g>
<g><path style="opacity:1" fill="#92c9c9" d="M 231.5,321.5 C 222.795,317.147 214.128,312.814 205.5,308.5C 208.176,307.992 210.843,307.825 213.5,308C 212.289,308.893 212.289,309.726 213.5,310.5C 217.3,312.559 221.3,314.059 225.5,315C 228.294,316.535 230.294,318.702 231.5,321.5 Z"/></g>
<g><path style="opacity:1" fill="#97cac8" d="M 482.5,331.5 C 483.148,329.914 483.648,328.247 484,326.5C 485.011,325.663 486.178,325.33 487.5,325.5C 487.665,322.482 487.498,319.482 487,316.5C 485.675,314.662 483.841,313.662 481.5,313.5C 471.416,314.185 461.749,316.352 452.5,320C 448.848,320.499 445.182,320.665 441.5,320.5C 455.422,315.949 469.755,313.116 484.5,312C 490.416,316.084 491.583,321.251 488,327.5C 486.549,329.464 484.716,330.797 482.5,331.5 Z"/></g>
<g><path style="opacity:1" fill="#92c8c7" d="M 302.5,309.5 C 302.586,310.496 302.252,311.329 301.5,312C 295.721,316.637 289.388,320.137 282.5,322.5C 288.622,317.387 295.289,313.054 302.5,309.5 Z"/></g>
<g><path style="opacity:1" fill="#7dc4c5" d="M 111.5,321.5 C 117.211,323.567 123.211,325.234 129.5,326.5C 131.135,325.954 132.801,325.62 134.5,325.5C 134.833,325.5 135.167,325.5 135.5,325.5C 135.414,326.496 135.748,327.329 136.5,328C 143.026,328.189 149.192,329.689 155,332.5C 155.671,331.748 156.504,331.414 157.5,331.5C 162.534,332.398 167.201,334.065 171.5,336.5C 171.712,338.384 172.712,339.717 174.5,340.5C 176.743,341.474 179.076,341.808 181.5,341.5C 181.703,343.638 182.703,345.305 184.5,346.5C 186.793,347.626 188.96,348.959 191,350.5C 198.128,348.75 202.628,351.417 204.5,358.5C 203.905,361.14 203.572,363.807 203.5,366.5C 199.5,366.5 195.5,366.5 191.5,366.5C 191.5,365.5 191.5,364.5 191.5,363.5C 185.906,362.653 180.24,361.32 174.5,359.5C 163.426,355.477 152.426,351.477 141.5,347.5C 140.942,346.21 139.942,345.377 138.5,345C 135.518,344.502 132.518,344.335 129.5,344.5C 127.776,342.311 125.442,341.144 122.5,341C 117.511,340.501 112.511,340.334 107.5,340.5C 83.7369,339.154 60.0702,340.154 36.5,343.5C 32.9636,342.009 29.6302,342.342 26.5,344.5C 23.7894,343.986 21.2894,342.986 19,341.5C 18.1199,336.204 18.9533,331.204 21.5,326.5C 27.8557,325.832 34.189,324.832 40.5,323.5C 41.6016,322.824 42.6016,322.158 43.5,321.5C 66.1651,318.849 88.8317,318.849 111.5,321.5 Z"/></g>
<g><path style="opacity:1" fill="#9ccdcc" d="M 235.5,301.5 C 239.972,304.573 244.639,307.407 249.5,310C 253.39,316.442 252.057,321.775 245.5,326C 240.03,326.787 235.363,325.287 231.5,321.5C 235.236,321.643 238.736,322.643 242,324.5C 245.442,324.13 247.109,322.13 247,318.5C 248.011,319.337 249.178,319.67 250.5,319.5C 250.846,316.398 250.179,313.565 248.5,311C 243.886,309.188 239.553,307.021 235.5,304.5C 235.5,303.5 235.5,302.5 235.5,301.5 Z"/></g>
<g><path style="opacity:1" fill="#98cac9" d="M 43.5,321.5 C 42.6016,322.158 41.6016,322.824 40.5,323.5C 34.189,324.832 27.8557,325.832 21.5,326.5C 28.4708,323.836 35.8041,322.169 43.5,321.5 Z"/></g>
<g><path style="opacity:1" fill="#9ccecd" d="M 111.5,321.5 C 119.452,321.918 127.119,323.251 134.5,325.5C 132.801,325.62 131.135,325.954 129.5,326.5C 123.211,325.234 117.211,323.567 111.5,321.5 Z"/></g>
<g><path style="opacity:1" fill="#9fcece" d="M 335.5,312.5 C 326.189,318.132 316.856,323.799 307.5,329.5C 307.5,328.167 307.5,326.833 307.5,325.5C 310.167,324.833 312.833,324.167 315.5,323.5C 315.5,322.5 315.5,321.5 315.5,320.5C 319.455,318.959 323.455,317.626 327.5,316.5C 327.5,315.5 327.5,314.5 327.5,313.5C 330.127,312.908 332.794,312.575 335.5,312.5 Z"/></g>
<g><path style="opacity:0.906" fill="#add9d6" d="M 428.5,324.5 C 425.495,326.277 422.162,327.277 418.5,327.5C 421.505,325.723 424.838,324.723 428.5,324.5 Z"/></g>
<g><path style="opacity:1" fill="#9bcdcb" d="M 135.5,325.5 C 143.189,326.587 150.522,328.587 157.5,331.5C 156.504,331.414 155.671,331.748 155,332.5C 149.192,329.689 143.026,328.189 136.5,328C 135.748,327.329 135.414,326.496 135.5,325.5 Z"/></g>
<g><path style="opacity:0.78" fill="#b2d7db" d="M 273.5,328.5 C 271.704,330.9 269.37,332.567 266.5,333.5C 268.296,331.1 270.63,329.433 273.5,328.5 Z"/></g>
<g><path style="opacity:1" fill="#9ecfcd" d="M 306.5,329.5 C 303.048,332.399 299.382,335.066 295.5,337.5C 295.586,336.504 295.252,335.671 294.5,335C 295.938,334.781 297.271,334.281 298.5,333.5C 298.291,332.914 297.957,332.414 297.5,332C 300.353,330.57 303.353,329.737 306.5,329.5 Z"/></g>
<g><path style="opacity:1" fill="#92c9c9" d="M 417.5,327.5 C 416.517,331.521 414.184,332.855 410.5,331.5C 407.58,332.586 404.58,333.252 401.5,333.5C 406.681,331.325 412.014,329.325 417.5,327.5 Z"/></g>
<g><path style="opacity:1" fill="#a2d0d1" d="M 475.5,332.5 C 466.363,334.862 457.03,336.862 447.5,338.5C 447.62,337.414 448.287,336.747 449.5,336.5C 458.206,334.686 466.872,333.353 475.5,332.5 Z"/></g>
<g><path style="opacity:1" fill="#9ccccc" d="M 21.5,326.5 C 18.9533,331.204 18.1199,336.204 19,341.5C 21.2894,342.986 23.7894,343.986 26.5,344.5C 29.6302,342.342 32.9636,342.009 36.5,343.5C 33.0566,344.335 29.5566,345.335 26,346.5C 16.9774,344.125 13.9774,338.458 17,329.5C 18.129,327.859 19.629,326.859 21.5,326.5 Z"/></g>
<g><path style="opacity:1" fill="#a3d1d1" d="M 447.5,338.5 C 444.381,339.87 441.048,340.87 437.5,341.5C 437.804,340.85 438.137,340.183 438.5,339.5C 441.428,338.516 444.428,338.183 447.5,338.5 Z"/></g>
<g><path style="opacity:1" fill="#97cbc9" d="M 107.5,340.5 C 112.511,340.334 117.511,340.501 122.5,341C 125.442,341.144 127.776,342.311 129.5,344.5C 122.003,343.363 114.669,342.03 107.5,340.5 Z"/></g>
<g><path style="opacity:1" fill="#9dcece" d="M 129.5,344.5 C 132.518,344.335 135.518,344.502 138.5,345C 139.942,345.377 140.942,346.21 141.5,347.5C 137.239,347.102 133.239,346.102 129.5,344.5 Z"/></g>
<g><path style="opacity:1" fill="#8ec9c8" d="M 171.5,336.5 C 183.733,340.7 195.233,346.366 206,353.5C 206.667,356.833 206.667,360.167 206,363.5C 205.623,364.942 204.79,365.942 203.5,366.5C 203.572,363.807 203.905,361.14 204.5,358.5C 202.628,351.417 198.128,348.75 191,350.5C 188.96,348.959 186.793,347.626 184.5,346.5C 182.703,345.305 181.703,343.638 181.5,341.5C 179.076,341.808 176.743,341.474 174.5,340.5C 172.712,339.717 171.712,338.384 171.5,336.5 Z"/></g>
<g><path style="opacity:0.988" fill="#9bcccb" d="M 291.5,339.5 C 284.191,345.136 276.857,350.802 269.5,356.5C 270.321,353.661 271.987,351.328 274.5,349.5C 277.191,347.974 279.857,346.64 282.5,345.5C 282.343,344.127 282.51,342.793 283,341.5C 283.414,341.957 283.914,342.291 284.5,342.5C 286.202,339.436 288.535,338.436 291.5,339.5 Z"/></g>
<g><path style="opacity:0.933" fill="#9fcfcf" d="M 436.5,341.5 C 424.907,345.476 413.24,349.476 401.5,353.5C 403.56,351.852 405.893,350.352 408.5,349C 416.886,346.26 425.219,343.427 433.5,340.5C 434.584,340.685 435.584,341.018 436.5,341.5 Z"/></g>
<g><path style="opacity:1" fill="#9ecfcd" d="M 401.5,353.5 C 398.744,355.204 395.744,356.537 392.5,357.5C 392.511,355.983 393.177,354.816 394.5,354C 396.81,353.503 399.143,353.337 401.5,353.5 Z"/></g>
<g><path style="opacity:1" fill="#8bc5c4" d="M 379.5,342.5 C 379.631,343.376 379.298,344.043 378.5,344.5C 373.788,347.523 368.788,350.023 363.5,352C 362.62,353.356 362.286,354.856 362.5,356.5C 360.278,357.386 358.112,357.386 356,356.5C 351.713,358.859 347.213,360.526 342.5,361.5C 354.356,354.404 366.689,348.071 379.5,342.5 Z"/></g>
<g><path style="opacity:1" fill="#95cac9" d="M 174.5,359.5 C 180.24,361.32 185.906,362.653 191.5,363.5C 191.5,364.5 191.5,365.5 191.5,366.5C 195.5,366.5 199.5,366.5 203.5,366.5C 199.573,369.722 195.239,370.222 190.5,368C 184.947,365.392 179.613,362.559 174.5,359.5 Z"/></g>
<g><path style="opacity:1" fill="#99cccb" d="M 385.5,360.5 C 379.818,364.008 373.818,367.008 367.5,369.5C 367.821,367.952 368.821,367.285 370.5,367.5C 370.5,365.833 370.5,364.167 370.5,362.5C 372.199,362.62 373.865,362.954 375.5,363.5C 378.511,361.497 381.844,360.497 385.5,360.5 Z"/></g>
<g><path style="opacity:1" fill="#a0d0cf" d="M 261.5,362.5 C 259.909,364.633 257.909,366.299 255.5,367.5C 255.5,366.167 255.5,364.833 255.5,363.5C 257.5,363.167 259.5,362.833 261.5,362.5 Z"/></g>
<g><path style="opacity:1" fill="#98cecb" d="M 255.5,367.5 C 251.193,371.472 246.859,375.472 242.5,379.5C 242.67,378.178 242.337,377.011 241.5,376C 243.873,374.585 246.207,373.085 248.5,371.5C 249.429,370.311 249.762,368.978 249.5,367.5C 251.5,367.5 253.5,367.5 255.5,367.5 Z"/></g>
<g><path style="opacity:1" fill="#9ac9ca" d="M 340.5,362.5 C 337.609,367.368 333.276,370.035 327.5,370.5C 331.323,367.084 335.657,364.418 340.5,362.5 Z"/></g>
<g><path style="opacity:0.827" fill="#b6dbd9" d="M 224.5,367.5 C 223.833,370.167 222.167,371.833 219.5,372.5C 220.833,370.5 222.5,368.833 224.5,367.5 Z"/></g>
<g><path style="opacity:1" fill="#a1d1d0" d="M 359.5,373.5 C 357.178,375.664 354.511,377.331 351.5,378.5C 351.971,377.099 352.638,375.766 353.5,374.5C 354.086,374.709 354.586,375.043 355,375.5C 356.049,373.893 357.549,373.227 359.5,373.5 Z"/></g>
<g><path style="opacity:1" fill="#8bc7c6" d="M 266.5,333.5 C 264.615,335.053 263.615,337.053 263.5,339.5C 262.127,339.343 260.793,339.51 259.5,340C 258.185,341.395 258.519,342.395 260.5,343C 258.5,343.333 256.5,343.667 254.5,344C 252.287,347.442 249.621,350.442 246.5,353C 243.079,354.039 240.412,356.039 238.5,359C 237.551,359.617 236.718,359.451 236,358.5C 233.333,361.167 230.667,363.833 228,366.5C 226.858,370.983 224.192,374.316 220,376.5C 219.206,379.831 217.039,381.664 213.5,382C 212.5,383.667 211.5,385.333 210.5,387C 206.017,388.142 202.684,390.808 200.5,395C 198.922,396.094 197.255,396.928 195.5,397.5C 202.799,388.533 210.799,380.2 219.5,372.5C 222.167,371.833 223.833,370.167 224.5,367.5C 237.65,355.006 251.65,343.673 266.5,333.5 Z"/></g>
<g><path style="opacity:1" fill="#7dc4c5" d="M 482.5,331.5 C 480.283,332.369 477.95,332.702 475.5,332.5C 466.872,333.353 458.206,334.686 449.5,336.5C 448.287,336.747 447.62,337.414 447.5,338.5C 444.428,338.183 441.428,338.516 438.5,339.5C 438.137,340.183 437.804,340.85 437.5,341.5C 437.167,341.5 436.833,341.5 436.5,341.5C 435.584,341.018 434.584,340.685 433.5,340.5C 425.219,343.427 416.886,346.26 408.5,349C 405.893,350.352 403.56,351.852 401.5,353.5C 399.143,353.337 396.81,353.503 394.5,354C 393.177,354.816 392.511,355.983 392.5,357.5C 390.351,358.736 388.018,359.736 385.5,360.5C 381.844,360.497 378.511,361.497 375.5,363.5C 373.865,362.954 372.199,362.62 370.5,362.5C 370.5,364.167 370.5,365.833 370.5,367.5C 368.821,367.285 367.821,367.952 367.5,369.5C 365.151,371.341 362.485,372.674 359.5,373.5C 357.549,373.227 356.049,373.893 355,375.5C 354.586,375.043 354.086,374.709 353.5,374.5C 352.638,375.766 351.971,377.099 351.5,378.5C 349.337,380.083 347.004,381.416 344.5,382.5C 341.412,382.197 339.746,383.53 339.5,386.5C 335.974,389.094 332.308,391.427 328.5,393.5C 325.473,394.037 322.473,394.871 319.5,396C 317.545,399.931 314.545,402.764 310.5,404.5C 309.614,405.325 309.281,406.325 309.5,407.5C 308.5,407.5 307.5,407.5 306.5,407.5C 306.5,408.5 306.5,409.5 306.5,410.5C 304.801,410.34 303.134,410.506 301.5,411C 301.53,412.429 301.197,413.929 300.5,415.5C 300.5,416.167 300.167,416.5 299.5,416.5C 297.5,416.833 295.5,417.167 293.5,417.5C 293.55,419.59 292.55,420.923 290.5,421.5C 289.808,420.975 289.308,420.308 289,419.5C 288.503,421.81 288.337,424.143 288.5,426.5C 277.5,436.833 266.833,447.5 256.5,458.5C 252.108,459.558 249.442,462.225 248.5,466.5C 245.221,467.031 243.887,469.031 244.5,472.5C 243.178,472.67 242.011,472.337 241,471.5C 240.5,472 240,472.5 239.5,473C 240.973,473.71 241.64,474.876 241.5,476.5C 238.188,481.804 234.521,486.804 230.5,491.5C 220.046,497.516 214.713,494.516 214.5,482.5C 218.185,475.125 222.851,468.459 228.5,462.5C 232.224,460.423 235.057,457.423 237,453.5C 237.333,453.833 237.667,454.167 238,454.5C 240.157,450.986 242.491,447.652 245,444.5C 245.483,443.552 245.649,442.552 245.5,441.5C 248.916,439.752 251.25,437.086 252.5,433.5C 259.14,425.527 266.473,418.194 274.5,411.5C 278.302,411.189 280.635,409.189 281.5,405.5C 285.727,403.215 289.393,400.215 292.5,396.5C 294.549,393.45 297.216,391.117 300.5,389.5C 302.167,389.5 303.833,389.5 305.5,389.5C 305.392,387.486 306.058,385.82 307.5,384.5C 313.808,379.344 320.475,374.677 327.5,370.5C 333.276,370.035 337.609,367.368 340.5,362.5C 340.842,361.662 341.508,361.328 342.5,361.5C 347.213,360.526 351.713,358.859 356,356.5C 358.112,357.386 360.278,357.386 362.5,356.5C 362.286,354.856 362.62,353.356 363.5,352C 368.788,350.023 373.788,347.523 378.5,344.5C 379.298,344.043 379.631,343.376 379.5,342.5C 386.538,338.988 393.871,335.988 401.5,333.5C 404.58,333.252 407.58,332.586 410.5,331.5C 414.184,332.855 416.517,331.521 417.5,327.5C 417.833,327.5 418.167,327.5 418.5,327.5C 422.162,327.277 425.495,326.277 428.5,324.5C 432.502,322.39 436.835,321.057 441.5,320.5C 445.182,320.665 448.848,320.499 452.5,320C 461.749,316.352 471.416,314.185 481.5,313.5C 483.841,313.662 485.675,314.662 487,316.5C 487.498,319.482 487.665,322.482 487.5,325.5C 486.178,325.33 485.011,325.663 484,326.5C 483.648,328.247 483.148,329.914 482.5,331.5 Z"/></g>
<g><path style="opacity:1" fill="#94c9cb" d="M 116.5,382.5 C 100.431,382.106 84.4314,382.939 68.5,385C 66.7756,385.448 66.109,386.282 66.5,387.5C 62.1935,386.41 57.8601,386.41 53.5,387.5C 54.842,386.207 56.5087,385.374 58.5,385C 77.8275,380.244 97.1609,379.411 116.5,382.5 Z"/></g>
<g><path style="opacity:1" fill="#7dc4c5" d="M 116.5,382.5 C 126.106,383.354 135.439,385.354 144.5,388.5C 146.557,390.856 149.224,391.856 152.5,391.5C 155.38,391.94 158.046,392.94 160.5,394.5C 160.427,396.027 161.094,397.027 162.5,397.5C 161.864,400.106 161.864,402.606 162.5,405C 161.552,405.483 160.552,405.649 159.5,405.5C 159.5,406.833 159.5,408.167 159.5,409.5C 155.5,409.5 151.5,409.5 147.5,409.5C 147.047,408.542 146.381,407.708 145.5,407C 139.93,405.452 134.264,404.619 128.5,404.5C 110.274,401.337 91.9406,400.67 73.5,402.5C 71.7376,402.643 70.0709,402.309 68.5,401.5C 64.6112,402.811 60.6112,403.478 56.5,403.5C 55.8814,400.205 54.5481,396.872 52.5,393.5C 52.6718,391.452 53.0051,389.452 53.5,387.5C 57.8601,386.41 62.1935,386.41 66.5,387.5C 66.109,386.282 66.7756,385.448 68.5,385C 84.4314,382.939 100.431,382.106 116.5,382.5 Z"/></g>
<g><path style="opacity:0.953" fill="#a9d2d2" d="M 344.5,382.5 C 343.055,384.063 341.389,385.396 339.5,386.5C 339.746,383.53 341.412,382.197 344.5,382.5 Z"/></g>
<g><path style="opacity:1" fill="#9dcccd" d="M 307.5,384.5 C 306.058,385.82 305.392,387.486 305.5,389.5C 303.833,389.5 302.167,389.5 300.5,389.5C 302.55,387.453 304.883,385.786 307.5,384.5 Z"/></g>
<g><path style="opacity:1" fill="#acd3d4" d="M 144.5,388.5 C 147.443,388.98 150.11,389.98 152.5,391.5C 149.224,391.856 146.557,390.856 144.5,388.5 Z"/></g>
<g><path style="opacity:1" fill="#9acdce" d="M 242.5,379.5 C 234.526,387.139 226.526,394.806 218.5,402.5C 218.586,401.504 218.252,400.671 217.5,400C 218.701,399.097 219.535,397.931 220,396.5C 221.011,395.663 222.178,395.33 223.5,395.5C 223.5,394.167 223.5,392.833 223.5,391.5C 224.833,391.5 226.167,391.5 227.5,391.5C 227.5,390.5 227.5,389.5 227.5,388.5C 230.999,388.741 231.332,387.908 228.5,386C 230.577,385.808 232.577,385.308 234.5,384.5C 235.012,381.649 236.679,380.316 239.5,380.5C 239.694,376.995 240.694,376.662 242.5,379.5 Z"/></g>
<g><path style="opacity:0.741" fill="#c5e5e5" d="M 160.5,394.5 C 161.906,394.973 162.573,395.973 162.5,397.5C 161.094,397.027 160.427,396.027 160.5,394.5 Z"/></g>
<g><path style="opacity:1" fill="#7bc4c4" d="M 422.5,393.5 C 424.117,394.038 425.784,394.371 427.5,394.5C 427.456,398.086 429.123,400.419 432.5,401.5C 432.987,402.446 433.32,403.446 433.5,404.5C 431.26,409.538 427.26,411.705 421.5,411C 420.29,412.039 419.29,413.206 418.5,414.5C 418.167,414.5 417.833,414.5 417.5,414.5C 414.612,413.99 412.279,414.656 410.5,416.5C 406.785,416.423 403.119,416.756 399.5,417.5C 399.5,418.5 399.5,419.5 399.5,420.5C 397.517,420.157 396.183,420.824 395.5,422.5C 390.183,422.883 385.183,424.383 380.5,427C 379.177,427.816 378.511,428.983 378.5,430.5C 373.926,430.289 370.259,431.956 367.5,435.5C 366.311,436.429 364.978,436.762 363.5,436.5C 363.5,437.833 363.5,439.167 363.5,440.5C 359.646,439.318 357.646,440.985 357.5,445.5C 353.61,445.555 351.443,447.555 351,451.5C 350.577,450.044 349.744,449.544 348.5,450C 346.685,453.461 344.352,456.961 341.5,460.5C 340.833,460.167 340.167,459.833 339.5,459.5C 338.692,461.423 338.192,463.423 338,465.5C 336.989,466.337 335.822,466.67 334.5,466.5C 334.5,468.167 334.5,469.833 334.5,471.5C 333.5,471.5 332.5,471.5 331.5,471.5C 331.433,472.959 331.766,474.292 332.5,475.5C 331.976,478.188 330.309,479.688 327.5,480C 324.462,480.885 321.795,480.385 319.5,478.5C 319.262,476.355 318.262,474.688 316.5,473.5C 315.526,471.257 315.192,468.924 315.5,466.5C 316.34,464.147 317.674,462.147 319.5,460.5C 323.256,458.436 326.589,455.769 329.5,452.5C 330.615,451.402 330.615,450.235 329.5,449C 332.653,446.52 334.653,443.354 335.5,439.5C 338.764,437.906 341.431,435.573 343.5,432.5C 344.585,430.413 346.251,429.08 348.5,428.5C 351.891,427.471 354.557,425.471 356.5,422.5C 358.147,420.674 360.147,419.34 362.5,418.5C 363.93,418.421 365.264,418.754 366.5,419.5C 367.738,417.363 369.571,416.029 372,415.5C 372.309,414.234 372.809,413.067 373.5,412C 377.112,410.861 380.446,409.194 383.5,407C 385.134,406.506 386.801,406.34 388.5,406.5C 388.5,405.5 388.5,404.5 388.5,403.5C 400.542,401.996 411.876,398.663 422.5,393.5 Z"/></g>
<g><path style="opacity:1" fill="#9ccdcc" d="M 53.5,387.5 C 53.0051,389.452 52.6718,391.452 52.5,393.5C 54.5481,396.872 55.8814,400.205 56.5,403.5C 53.5479,402.641 51.7146,400.641 51,397.5C 49.8634,393.537 50.6967,390.204 53.5,387.5 Z"/></g>
<g><path style="opacity:0.843" fill="#acd1d2" d="M 292.5,396.5 C 289.393,400.215 285.727,403.215 281.5,405.5C 284.607,401.785 288.273,398.785 292.5,396.5 Z"/></g>
<g><path style="opacity:1" fill="#98cccb" d="M 328.5,393.5 C 321.567,399.639 314.233,405.306 306.5,410.5C 306.5,409.5 306.5,408.5 306.5,407.5C 307.5,407.5 308.5,407.5 309.5,407.5C 309.281,406.325 309.614,405.325 310.5,404.5C 314.545,402.764 317.545,399.931 319.5,396C 322.473,394.871 325.473,394.037 328.5,393.5 Z"/></g>
<g><path style="opacity:0.518" fill="#c9dedc" d="M 431.5,396.5 C 432.906,396.973 433.573,397.973 433.5,399.5C 432.094,399.027 431.427,398.027 431.5,396.5 Z"/></g>
<g><path style="opacity:1" fill="#8ec7c6" d="M 422.5,393.5 C 411.876,398.663 400.542,401.996 388.5,403.5C 399.194,398.384 410.528,395.05 422.5,393.5 Z"/></g>
<g><path style="opacity:0.941" fill="#a8d0ce" d="M 73.5,402.5 C 69.9299,403.385 66.2633,404.385 62.5,405.5C 60.3432,404.95 58.3432,404.283 56.5,403.5C 60.6112,403.478 64.6112,402.811 68.5,401.5C 70.0709,402.309 71.7376,402.643 73.5,402.5 Z"/></g>
<g><path style="opacity:1" fill="#9ecdcd" d="M 162.5,397.5 C 164.992,402.203 163.992,406.203 159.5,409.5C 159.5,408.167 159.5,406.833 159.5,405.5C 160.552,405.649 161.552,405.483 162.5,405C 161.864,402.606 161.864,400.106 162.5,397.5 Z"/></g>
<g><path style="opacity:0.989" fill="#98caca" d="M 128.5,404.5 C 134.264,404.619 139.93,405.452 145.5,407C 146.381,407.708 147.047,408.542 147.5,409.5C 140.946,408.279 134.612,406.613 128.5,404.5 Z"/></g>
<g><path style="opacity:1" fill="#a4cece" d="M 147.5,409.5 C 151.5,409.5 155.5,409.5 159.5,409.5C 158.508,411.026 157.008,411.693 155,411.5C 152.24,411.354 149.74,410.687 147.5,409.5 Z"/></g>
<g><path style="opacity:1" fill="#a1cecd" d="M 281.5,405.5 C 280.635,409.189 278.302,411.189 274.5,411.5C 276.239,408.757 278.573,406.757 281.5,405.5 Z"/></g>
<g><path style="opacity:0.992" fill="#9bcccc" d="M 422.5,393.5 C 422.735,392.903 423.235,392.57 424,392.5C 427.048,393.001 429.548,394.334 431.5,396.5C 431.427,398.027 432.094,399.027 433.5,399.5C 434.224,401.218 434.891,403.052 435.5,405C 434.671,406.816 433.837,408.649 433,410.5C 428.416,412.652 423.583,413.985 418.5,414.5C 419.29,413.206 420.29,412.039 421.5,411C 427.26,411.705 431.26,409.538 433.5,404.5C 433.32,403.446 432.987,402.446 432.5,401.5C 429.123,400.419 427.456,398.086 427.5,394.5C 425.784,394.371 424.117,394.038 422.5,393.5 Z"/></g>
<g><path style="opacity:1" fill="#9fd0d3" d="M 306.5,410.5 C 305.089,412.914 303.089,414.581 300.5,415.5C 301.197,413.929 301.53,412.429 301.5,411C 303.134,410.506 304.801,410.34 306.5,410.5 Z"/></g>
<g><path style="opacity:1" fill="#8ec6c7" d="M 388.5,403.5 C 388.5,404.5 388.5,405.5 388.5,406.5C 386.801,406.34 385.134,406.506 383.5,407C 380.446,409.194 377.112,410.861 373.5,412C 372.809,413.067 372.309,414.234 372,415.5C 369.571,416.029 367.738,417.363 366.5,419.5C 365.264,418.754 363.93,418.421 362.5,418.5C 370.21,411.974 378.877,406.974 388.5,403.5 Z"/></g>
<g><path style="opacity:1" fill="#a7d2d3" d="M 417.5,414.5 C 415.485,415.924 413.152,416.59 410.5,416.5C 412.279,414.656 414.612,413.99 417.5,414.5 Z"/></g>
<g><path style="opacity:1" fill="#96cdcb" d="M 211.5,409.5 C 206.843,415.489 201.843,421.156 196.5,426.5C 196.5,425.167 196.5,423.833 196.5,422.5C 197.5,422.5 198.5,422.5 199.5,422.5C 199.48,420.857 200.147,419.524 201.5,418.5C 201.167,417.833 200.833,417.167 200.5,416.5C 204.141,414.693 206.974,412.026 209,408.5C 209.671,409.252 210.504,409.586 211.5,409.5 Z"/></g>
<g><path style="opacity:1" fill="#9eced0" d="M 410.5,416.5 C 405.735,418.871 400.735,420.871 395.5,422.5C 396.183,420.824 397.517,420.157 399.5,420.5C 399.5,419.5 399.5,418.5 399.5,417.5C 403.119,416.756 406.785,416.423 410.5,416.5 Z"/></g>
<g><path style="opacity:1" fill="#94c8c7" d="M 195.5,397.5 C 195.414,398.496 195.748,399.329 196.5,400C 192.108,405.562 187.108,410.729 181.5,415.5C 181.261,418.696 179.594,420.529 176.5,421C 176.833,421.333 177.167,421.667 177.5,422C 175.055,423.769 172.722,425.602 170.5,427.5C 177.883,416.752 186.216,406.752 195.5,397.5 Z"/></g>
<g><path style="opacity:0.973" fill="#97ccca" d="M 299.5,416.5 C 296.064,420.057 292.397,423.391 288.5,426.5C 288.337,424.143 288.503,421.81 289,419.5C 289.308,420.308 289.808,420.975 290.5,421.5C 292.55,420.923 293.55,419.59 293.5,417.5C 295.5,417.167 297.5,416.833 299.5,416.5 Z"/></g>
<g><path style="opacity:1" fill="#a1cece" d="M 395.5,422.5 C 390.023,425.403 384.357,428.07 378.5,430.5C 378.511,428.983 379.177,427.816 380.5,427C 385.183,424.383 390.183,422.883 395.5,422.5 Z"/></g>
<g><path style="opacity:0.89" fill="#a9d1d3" d="M 356.5,422.5 C 354.557,425.471 351.891,427.471 348.5,428.5C 350.8,426.016 353.467,424.016 356.5,422.5 Z"/></g>
<g><path style="opacity:1" fill="#98cecd" d="M 196.5,426.5 C 193.219,432.056 189.219,437.056 184.5,441.5C 184.833,439.5 185.167,437.5 185.5,435.5C 186.675,435.719 187.675,435.386 188.5,434.5C 187.079,431.572 188.079,430.238 191.5,430.5C 191.89,427.074 193.557,425.741 196.5,426.5 Z"/></g>
<g><path style="opacity:0.8" fill="#b6dadb" d="M 343.5,432.5 C 341.431,435.573 338.764,437.906 335.5,439.5C 337.569,436.427 340.236,434.094 343.5,432.5 Z"/></g>
<g><path style="opacity:1" fill="#add5d4" d="M 252.5,433.5 C 251.25,437.086 248.916,439.752 245.5,441.5C 247.094,438.236 249.427,435.569 252.5,433.5 Z"/></g>
<g><path style="opacity:0.91" fill="#aed8d8" d="M 163.5,436.5 C 162.567,439.37 160.9,441.704 158.5,443.5C 159.433,440.63 161.1,438.296 163.5,436.5 Z"/></g>
<g><path style="opacity:0.925" fill="#9bcecd" d="M 184.5,441.5 C 180.519,447.475 176.186,453.142 171.5,458.5C 171.421,457.07 171.754,455.736 172.5,454.5C 171.189,453.742 170.689,452.742 171,451.5C 172.406,450.332 173.572,450.665 174.5,452.5C 175.731,451.349 175.731,450.183 174.5,449C 178.657,448.269 180.657,445.769 180.5,441.5C 181.833,441.5 183.167,441.5 184.5,441.5 Z"/></g>
<g><path style="opacity:1" fill="#95c9c8" d="M 245.5,441.5 C 245.649,442.552 245.483,443.552 245,444.5C 242.491,447.652 240.157,450.986 238,454.5C 237.667,454.167 237.333,453.833 237,453.5C 235.057,457.423 232.224,460.423 228.5,462.5C 233.45,454.942 239.117,447.942 245.5,441.5 Z"/></g>
<g><path style="opacity:1" fill="#92c8c8" d="M 335.5,439.5 C 334.653,443.354 332.653,446.52 329.5,449C 330.615,450.235 330.615,451.402 329.5,452.5C 326.589,455.769 323.256,458.436 319.5,460.5C 323.623,452.592 328.956,445.592 335.5,439.5 Z"/></g>
<g><path style="opacity:1" fill="#93cbca" d="M 378.5,430.5 C 360.542,442.791 345.208,457.791 332.5,475.5C 331.766,474.292 331.433,472.959 331.5,471.5C 332.5,471.5 333.5,471.5 334.5,471.5C 334.5,469.833 334.5,468.167 334.5,466.5C 335.822,466.67 336.989,466.337 338,465.5C 338.192,463.423 338.692,461.423 339.5,459.5C 340.167,459.833 340.833,460.167 341.5,460.5C 344.352,456.961 346.685,453.461 348.5,450C 349.744,449.544 350.577,450.044 351,451.5C 351.443,447.555 353.61,445.555 357.5,445.5C 357.646,440.985 359.646,439.318 363.5,440.5C 363.5,439.167 363.5,437.833 363.5,436.5C 364.978,436.762 366.311,436.429 367.5,435.5C 370.259,431.956 373.926,430.289 378.5,430.5 Z"/></g>
<g><path style="opacity:0.498" fill="#cae2e4" d="M 149.5,456.5 C 149.573,458.027 148.906,459.027 147.5,459.5C 147.427,457.973 148.094,456.973 149.5,456.5 Z"/></g>
<g><path style="opacity:1" fill="#9bcdcc" d="M 171.5,459.5 C 169.154,462.871 166.821,466.204 164.5,469.5C 164.664,466.252 165.664,463.252 167.5,460.5C 168.736,459.754 170.07,459.421 171.5,459.5 Z"/></g>
<g><path style="opacity:1" fill="#8bc7c8" d="M 145.5,462.5 C 145.167,465.167 144.833,467.833 144.5,470.5C 145.5,470.5 146.5,470.5 147.5,470.5C 147.5,468.833 147.5,467.167 147.5,465.5C 150.066,465.656 152.566,465.322 155,464.5C 156.225,464.862 157.391,465.362 158.5,466C 152.388,466.484 149.054,469.651 148.5,475.5C 153.877,474.597 158.877,472.93 163.5,470.5C 160.09,478.836 154.423,480.669 146.5,476C 142.973,471.645 142.639,467.145 145.5,462.5 Z"/></g>
<g><path style="opacity:1" fill="#98cccb" d="M 256.5,458.5 C 252.247,465.09 247.247,471.09 241.5,476.5C 241.64,474.876 240.973,473.71 239.5,473C 240,472.5 240.5,472 241,471.5C 242.011,472.337 243.178,472.67 244.5,472.5C 243.887,469.031 245.221,467.031 248.5,466.5C 249.442,462.225 252.108,459.558 256.5,458.5 Z"/></g>
<g><path style="opacity:1" fill="#a8d1d0" d="M 315.5,466.5 C 315.192,468.924 315.526,471.257 316.5,473.5C 318.262,474.688 319.262,476.355 319.5,478.5C 317.248,478.084 315.748,476.751 315,474.5C 314.199,471.633 314.366,468.966 315.5,466.5 Z"/></g>
<g><path style="opacity:1" fill="#9fcdcc" d="M 214.5,482.5 C 214.713,494.516 220.046,497.516 230.5,491.5C 230.141,493.371 229.141,494.871 227.5,496C 215.789,498.36 211.455,493.86 214.5,482.5 Z"/></g>
</svg>
