<svg width="223" height="18" viewBox="0 0 223 18" fill="none" xmlns="http://www.w3.org/2000/svg">
<path d="M2.94495 13.2559C2.94495 14.3919 3.28095 15.2719 3.95295 15.8959C4.64095 16.5039 5.49695 16.8079 6.52095 16.8079C7.54495 16.8079 8.38495 16.5679 9.04095 16.0879C9.71295 15.5919 10.049 14.8879 10.049 13.9759C10.049 13.7679 10.001 13.5599 9.90495 13.3519C9.80895 13.1439 9.69695 13.0399 9.56895 13.0399C9.44095 13.0399 9.37695 13.1199 9.37695 13.2799C9.37695 13.2959 9.40095 13.3599 9.44895 13.4719C9.49695 13.5839 9.52095 13.7679 9.52095 14.0239C9.52095 14.2799 9.40895 14.5279 9.18495 14.7679C8.96095 14.9919 8.64895 15.1039 8.24895 15.1039C7.84895 15.1039 7.50495 14.9759 7.21695 14.7199C6.94495 14.4479 6.80895 14.0799 6.80895 13.6159C6.80895 13.1519 6.96895 12.7599 7.28895 12.4399C7.62495 12.1039 8.05695 11.9359 8.58495 11.9359C9.11295 11.9359 9.56095 12.1359 9.92895 12.5359C10.297 12.9199 10.481 13.4079 10.481 13.9999C10.481 14.9919 10.089 15.8239 9.30495 16.4959C8.53695 17.1519 7.31295 17.4799 5.63295 17.4799C3.95295 17.4799 2.65695 17.1359 1.74495 16.4479C0.832953 15.7439 0.376953 14.7999 0.376953 13.6159C0.376953 12.4159 0.744953 11.4079 1.48095 10.5919C2.21695 9.77593 3.27295 9.21593 4.64895 8.91193L4.57695 8.69593C3.42495 8.47193 2.55295 8.03993 1.96095 7.39993C1.36895 6.74393 1.07295 5.97593 1.07295 5.09593C1.07295 3.87993 1.53695 2.87993 2.46495 2.09593C3.40895 1.31193 4.59295 0.91993 6.01695 0.91993C6.97695 0.91993 7.80895 1.11993 8.51295 1.51993C9.23295 1.91993 9.59295 2.56793 9.59295 3.46393C9.59295 4.05593 9.41695 4.52793 9.06495 4.87993C8.72895 5.21593 8.33695 5.38393 7.88895 5.38393C7.44095 5.38393 7.04895 5.24793 6.71295 4.97593C6.37695 4.70393 6.20895 4.34393 6.20895 3.89593C6.20895 3.44793 6.33695 3.08793 6.59295 2.81593C6.86495 2.54393 7.20095 2.40793 7.60095 2.40793C8.11295 2.40793 8.46495 2.64793 8.65695 3.12793C8.68895 3.23993 8.72095 3.31993 8.75295 3.36793C8.78495 3.39993 8.84095 3.41593 8.92095 3.41593C9.06495 3.41593 9.13695 3.34393 9.13695 3.19993C9.13695 2.70393 8.88095 2.29593 8.36895 1.97593C7.85695 1.65593 7.22495 1.49593 6.47295 1.49593C5.72095 1.49593 5.03295 1.80793 4.40895 2.43193C3.78495 3.03993 3.47295 3.87993 3.47295 4.95193C3.47295 6.02393 3.74495 6.84793 4.28895 7.42393C4.83295 7.99993 5.54495 8.28793 6.42495 8.28793C6.84095 8.28793 7.22495 8.21593 7.57695 8.07193L7.72095 8.50393C4.53695 9.43193 2.94495 11.0159 2.94495 13.2559Z" fill="#007577"/>
<path d="M17.3431 16.6399V16.9999H12.0391V16.6399H13.6231V6.31993H11.9191V5.95993H12.4231C13.6871 5.95993 14.8151 5.85593 15.8071 5.64793V8.04793H15.9511C16.2231 7.27993 16.6791 6.66393 17.3191 6.19993C17.9751 5.71993 18.7031 5.47993 19.5031 5.47993C20.8951 5.47993 21.8471 5.89593 22.3591 6.72793C22.8711 7.54393 23.1271 8.76793 23.1271 10.3999V16.6399H24.7111V16.9999H19.4071V16.6399H20.9911V10.7359C20.9911 8.92793 20.8551 7.73593 20.5831 7.15993C20.4551 6.90393 20.2551 6.67193 19.9831 6.46393C19.7271 6.25593 19.3431 6.15193 18.8311 6.15193C18.3191 6.15193 17.8311 6.33593 17.3671 6.70393C16.9191 7.07193 16.5831 7.57593 16.3591 8.21593C15.9591 9.35193 15.7591 10.7119 15.7591 12.2959V16.6399H17.3431Z" fill="#007577"/>
<path d="M29.9405 13.2319C30.1645 14.1759 30.4845 14.9439 30.9005 15.5359C31.3165 16.1119 31.7885 16.3999 32.3165 16.3999C32.8605 16.3999 33.3965 16.0479 33.9245 15.3439C34.4685 14.6239 34.9085 13.7119 35.2445 12.6079C35.5965 11.4879 35.7725 10.3919 35.7725 9.31993C35.7725 7.04793 35.1405 5.91193 33.8765 5.91193C33.7165 5.91193 33.6365 5.97593 33.6365 6.10393C33.6365 6.23193 33.7085 6.31193 33.8525 6.34393C34.3005 6.43993 34.5165 6.70393 34.5005 7.13593C34.5005 7.55193 34.3805 7.86393 34.1405 8.07193C33.9165 8.27993 33.6125 8.38393 33.2285 8.38393C32.8605 8.38393 32.5485 8.25593 32.2925 7.99993C32.0525 7.74393 31.9325 7.40793 31.9325 6.99193C31.9325 6.57593 32.1005 6.22393 32.4365 5.93593C32.7725 5.63193 33.1805 5.47993 33.6605 5.47993C35.3565 5.47993 36.2045 6.72793 36.2045 9.22393C36.2045 10.5359 35.9885 11.8319 35.5565 13.1119C35.1405 14.3759 34.5645 15.4239 33.8285 16.2559C33.1085 17.0719 32.3405 17.4799 31.5245 17.4799C30.1645 17.4799 29.0845 16.5839 28.2845 14.7919C27.5005 12.9999 27.1085 10.6239 27.1085 7.66393V6.31993H25.4045V5.95993H25.9085C27.1725 5.95993 28.3005 5.85593 29.2925 5.64793V7.11193C29.2925 9.36793 29.5085 11.4079 29.9405 13.2319Z" fill="#007577"/>
<path d="M42.0336 16.6399H43.6176V16.9999H38.3136V16.6399H39.8976V6.31993H38.1936V5.95993H38.6976C39.9456 5.95993 41.0576 5.85593 42.0336 5.64793V16.6399ZM39.8736 3.34393C39.6176 3.07193 39.4896 2.73593 39.4896 2.33593C39.4896 1.93593 39.6176 1.59993 39.8736 1.32793C40.1456 1.05593 40.4816 0.91993 40.8816 0.91993C41.2816 0.91993 41.6176 1.05593 41.8896 1.32793C42.1616 1.59993 42.2976 1.93593 42.2976 2.33593C42.2976 2.73593 42.1616 3.07193 41.8896 3.34393C41.6176 3.59993 41.2816 3.72793 40.8816 3.72793C40.4816 3.72793 40.1456 3.59993 39.8736 3.34393Z" fill="#007577"/>
<path d="M53.9112 7.30393C53.9112 6.88793 53.7592 6.54393 53.4552 6.27193C53.1512 5.99993 52.7432 5.86393 52.2312 5.86393C51.7192 5.86393 51.2392 6.07193 50.7912 6.48793C50.3592 6.88793 50.0232 7.41593 49.7832 8.07193C49.3512 9.33593 49.1352 10.7039 49.1352 12.1759V16.6399H50.8872V16.9999H45.4152V16.6399H46.9992V6.31993H45.2952V5.95993H45.7992C47.0792 5.95993 48.2072 5.85593 49.1832 5.64793V8.14393H49.3272C49.9992 6.36793 51.0072 5.47993 52.3512 5.47993C52.9432 5.47993 53.4232 5.67193 53.7912 6.05593C54.1752 6.42393 54.3672 6.88793 54.3672 7.44793C54.3672 7.99193 54.2072 8.43193 53.8872 8.76793C53.5832 9.08793 53.2152 9.24793 52.7832 9.24793C52.3672 9.24793 52.0232 9.12793 51.7512 8.88793C51.4952 8.63193 51.3672 8.32793 51.3672 7.97593C51.3672 7.60793 51.4712 7.30393 51.6792 7.06393C51.8872 6.80793 52.1672 6.67993 52.5192 6.67993C53.0632 6.67993 53.3832 6.88793 53.4792 7.30393C53.5112 7.44793 53.5912 7.51993 53.7192 7.51993C53.8472 7.51993 53.9112 7.44793 53.9112 7.30393Z" fill="#007577"/>
<path d="M64.6441 15.7999C63.7161 16.9199 62.4201 17.4799 60.7561 17.4799C59.0921 17.4799 57.7961 16.9199 56.8681 15.7999C55.9401 14.6799 55.4761 13.2399 55.4761 11.4799C55.4761 9.71993 55.9401 8.27993 56.8681 7.15993C57.7961 6.03993 59.0921 5.47993 60.7561 5.47993C62.4201 5.47993 63.7161 6.03993 64.6441 7.15993C65.5721 8.27993 66.0361 9.71993 66.0361 11.4799C66.0361 13.2399 65.5721 14.6799 64.6441 15.7999ZM63.6601 13.0879C63.6921 12.6239 63.7081 12.0879 63.7081 11.4799C63.7081 10.8719 63.6921 10.3359 63.6601 9.87193C63.6281 9.40793 63.5481 8.91193 63.4201 8.38393C63.3081 7.85593 63.1481 7.42393 62.9401 7.08793C62.7481 6.73593 62.4601 6.44793 62.0761 6.22393C61.7081 5.99993 61.2681 5.88793 60.7561 5.88793C60.2441 5.88793 59.7961 5.99993 59.4121 6.22393C59.0441 6.44793 58.7561 6.73593 58.5481 7.08793C58.3561 7.42393 58.1961 7.85593 58.0681 8.38393C57.9561 8.91193 57.8841 9.40793 57.8521 9.87193C57.8201 10.3359 57.8041 10.8719 57.8041 11.4799C57.8041 12.0879 57.8201 12.6239 57.8521 13.0879C57.8841 13.5519 57.9561 14.0479 58.0681 14.5759C58.1961 15.1039 58.3561 15.5439 58.5481 15.8959C58.7561 16.2319 59.0441 16.5119 59.4121 16.7359C59.7961 16.9599 60.2441 17.0719 60.7561 17.0719C61.2681 17.0719 61.7081 16.9599 62.0761 16.7359C62.4601 16.5119 62.7481 16.2319 62.9401 15.8959C63.1481 15.5439 63.3081 15.1039 63.4201 14.5759C63.5481 14.0479 63.6281 13.5519 63.6601 13.0879Z" fill="#007577"/>
<path d="M73.5696 16.6399V16.9999H68.2656V16.6399H69.8496V6.31993H68.1456V5.95993H68.6496C69.9136 5.95993 71.0416 5.85593 72.0336 5.64793V8.04793H72.1776C72.4496 7.27993 72.9056 6.66393 73.5456 6.19993C74.2016 5.71993 74.9296 5.47993 75.7296 5.47993C77.1216 5.47993 78.0736 5.89593 78.5856 6.72793C79.0976 7.54393 79.3536 8.76793 79.3536 10.3999V16.6399H80.9376V16.9999H75.6336V16.6399H77.2176V10.7359C77.2176 8.92793 77.0816 7.73593 76.8096 7.15993C76.6816 6.90393 76.4816 6.67193 76.2096 6.46393C75.9536 6.25593 75.5696 6.15193 75.0576 6.15193C74.5456 6.15193 74.0576 6.33593 73.5936 6.70393C73.1456 7.07193 72.8096 7.57593 72.5856 8.21593C72.1856 9.35193 71.9856 10.7119 71.9856 12.2959V16.6399H73.5696Z" fill="#007577"/>
<path d="M87.679 16.6399V16.9999H82.375V16.6399H83.959V6.31993H82.255V5.95993H82.759C84.023 5.95993 85.151 5.85593 86.143 5.64793V8.04793H86.287C86.559 7.27993 87.007 6.66393 87.631 6.19993C88.255 5.71993 88.967 5.47993 89.767 5.47993C91.671 5.47993 92.799 6.33593 93.151 8.04793H93.295C93.567 7.27993 94.015 6.66393 94.639 6.19993C95.263 5.71993 95.975 5.47993 96.775 5.47993C98.151 5.47993 99.071 5.87993 99.535 6.67993C99.999 7.47993 100.231 8.71993 100.231 10.3999V16.6399H101.815V16.9999H96.511V16.6399H98.095V9.84793C98.095 8.02393 97.831 6.88793 97.303 6.43993C97.047 6.24793 96.719 6.15193 96.319 6.15193C94.175 6.15193 93.103 8.19993 93.103 12.2959V16.6399H94.687V16.9999H89.503V16.6399H91.087V9.84793C91.087 8.02393 90.823 6.88793 90.295 6.43993C90.039 6.24793 89.711 6.15193 89.311 6.15193C87.167 6.15193 86.095 8.19993 86.095 12.2959V16.6399H87.679Z" fill="#007577"/>
<path d="M108.922 5.47993C110.122 5.47993 111.122 5.73593 111.922 6.24793C112.738 6.75993 113.146 7.52793 113.146 8.55193C113.146 10.1359 112.242 11.1119 110.434 11.4799C109.522 11.6559 108.386 11.7439 107.026 11.7439H105.898V12.4399C105.898 13.7359 106.162 14.7919 106.69 15.6079C107.234 16.4079 108.018 16.8079 109.042 16.8079C110.082 16.8079 110.89 16.5039 111.466 15.8959C112.058 15.2879 112.474 14.5039 112.714 13.5439L113.146 13.5919C112.89 14.7599 112.37 15.7039 111.586 16.4239C110.818 17.1279 109.842 17.4799 108.658 17.4799C106.994 17.4799 105.73 16.9359 104.866 15.8479C104.002 14.7439 103.57 13.2879 103.57 11.4799C103.57 9.67193 104.034 8.22393 104.962 7.13593C105.89 6.03193 107.21 5.47993 108.922 5.47993ZM105.898 11.3119H106.738C108.034 11.3119 108.938 11.1839 109.45 10.9279C109.978 10.6719 110.338 10.3599 110.53 9.99193C110.722 9.60793 110.818 9.07193 110.818 8.38393C110.818 7.69593 110.642 7.11193 110.29 6.63193C109.954 6.13593 109.434 5.88793 108.73 5.88793C108.026 5.88793 107.45 6.14393 107.002 6.65593C106.57 7.15193 106.274 7.73593 106.114 8.40793C105.97 9.07993 105.898 9.82393 105.898 10.6399V11.3119Z" fill="#007577"/>
<path d="M120.327 16.6399V16.9999H115.023V16.6399H116.607V6.31993H114.903V5.95993H115.407C116.671 5.95993 117.799 5.85593 118.791 5.64793V8.04793H118.935C119.207 7.27993 119.663 6.66393 120.303 6.19993C120.959 5.71993 121.687 5.47993 122.487 5.47993C123.879 5.47993 124.831 5.89593 125.343 6.72793C125.855 7.54393 126.111 8.76793 126.111 10.3999V16.6399H127.695V16.9999H122.391V16.6399H123.975V10.7359C123.975 8.92793 123.839 7.73593 123.567 7.15993C123.439 6.90393 123.239 6.67193 122.967 6.46393C122.711 6.25593 122.327 6.15193 121.815 6.15193C121.303 6.15193 120.815 6.33593 120.351 6.70393C119.903 7.07193 119.567 7.57593 119.343 8.21593C118.943 9.35193 118.743 10.7119 118.743 12.2959V16.6399H120.327Z" fill="#007577"/>
<path d="M132.853 6.31993V14.4799C132.853 15.8239 132.941 16.5679 133.117 16.7119C133.213 16.7919 133.341 16.8319 133.501 16.8319C133.901 16.8319 134.285 16.5999 134.653 16.1359C135.037 15.6719 135.349 15.1679 135.589 14.6239L135.973 14.7679C135.669 15.5359 135.261 16.1839 134.749 16.7119C134.237 17.2239 133.645 17.4799 132.973 17.4799C132.029 17.4799 131.413 17.1999 131.125 16.6399C130.853 16.0639 130.717 15.1679 130.717 13.9519V6.31993H129.013V5.95993H129.181C131.021 5.95993 132.141 4.90393 132.541 2.79193H132.853V5.95993H135.757V6.31993H132.853Z" fill="#007577"/>
<path d="M141.855 5.47993C143.759 5.47993 145.015 5.91193 145.623 6.77593C146.247 7.62393 146.559 9.11193 146.559 11.2399V15.4879C146.559 16.1439 146.703 16.4719 146.991 16.4719C147.583 16.4719 147.975 15.5519 148.167 13.7119L148.599 13.7599C148.359 16.2399 147.551 17.4799 146.175 17.4799C145.775 17.4799 145.463 17.3359 145.239 17.0479C145.031 16.7599 144.895 16.4479 144.831 16.1119C144.783 15.7599 144.759 15.3279 144.759 14.8159H144.615C144.407 15.6639 143.983 16.3199 143.343 16.7839C142.703 17.2479 141.879 17.4799 140.871 17.4799C139.879 17.4799 139.007 17.2159 138.255 16.6879C137.503 16.1439 137.127 15.3679 137.127 14.3599C137.127 13.6079 137.343 12.9839 137.775 12.4879C138.671 11.4639 140.703 10.9519 143.871 10.9519C144.047 10.9519 144.231 10.9519 144.423 10.9519V9.77593C144.423 8.51193 144.207 7.55993 143.775 6.91993C143.343 6.27993 142.591 5.95993 141.519 5.95993C140.463 5.95993 139.687 6.17593 139.191 6.60793C138.695 7.03993 138.447 7.48793 138.447 7.95193C138.447 8.09593 138.511 8.16793 138.639 8.16793C138.783 8.16793 138.863 8.09593 138.879 7.95193C138.975 7.53593 139.295 7.32793 139.839 7.32793C140.191 7.32793 140.471 7.45593 140.679 7.71193C140.887 7.95193 140.991 8.25593 140.991 8.62393C140.991 8.97593 140.855 9.27993 140.583 9.53593C140.327 9.77593 139.983 9.89593 139.551 9.89593C139.135 9.89593 138.767 9.73593 138.447 9.41593C138.143 9.07993 137.991 8.67193 137.991 8.19193C137.991 7.29593 138.367 6.62393 139.119 6.17593C139.871 5.71193 140.783 5.47993 141.855 5.47993ZM144.423 12.9919V11.3839C144.263 11.3839 144.007 11.3839 143.655 11.3839C143.319 11.3839 142.911 11.4079 142.431 11.4559C141.967 11.5039 141.487 11.6239 140.991 11.8159C139.967 12.1839 139.455 12.9999 139.455 14.2639C139.455 15.0319 139.639 15.6479 140.007 16.1119C140.375 16.5759 140.967 16.8079 141.783 16.8079C142.599 16.8079 143.239 16.4399 143.703 15.7039C144.183 14.9679 144.423 14.0639 144.423 12.9919Z" fill="#007577"/>
<path d="M153.361 16.6399H154.945V16.9999H149.641V16.6399H151.225V0.79993H149.521V0.439929H150.025C151.273 0.439929 152.385 0.335929 153.361 0.12793V16.6399Z" fill="#007577"/>
<path d="M163.938 6.43993C164.322 6.75993 164.738 6.91993 165.186 6.91993C165.65 6.91993 166.066 6.86393 166.434 6.75193V16.6159H167.898C169.674 16.6159 170.978 16.1679 171.81 15.2719C172.53 14.5199 172.97 13.2719 173.13 11.5279C173.21 10.8079 173.25 9.88793 173.25 8.76793C173.25 7.64793 173.17 6.66393 173.01 5.81593C172.85 4.95193 172.586 4.17593 172.218 3.48793C171.45 2.11193 170.082 1.42393 168.114 1.42393C166.722 1.42393 165.65 1.71993 164.898 2.31193C164.658 2.48793 164.466 2.70393 164.322 2.95993C164.194 3.21593 164.13 3.42393 164.13 3.58393C164.13 3.72793 164.194 3.79993 164.322 3.79993C164.45 3.79993 164.538 3.73593 164.586 3.60793C164.778 3.11193 165.154 2.86393 165.714 2.86393C166.066 2.86393 166.362 2.99193 166.602 3.24793C166.858 3.50393 166.986 3.85593 166.986 4.30393C166.986 4.75193 166.826 5.11193 166.506 5.38393C166.186 5.65593 165.802 5.79193 165.354 5.79193C164.906 5.79193 164.506 5.61593 164.154 5.26393C163.818 4.91193 163.65 4.46393 163.65 3.91993C163.65 3.05593 164.066 2.34393 164.898 1.78393C165.73 1.20793 166.834 0.91993 168.21 0.91993C170.738 0.91993 172.698 1.55193 174.09 2.81593C175.482 4.06393 176.178 6.00793 176.178 8.64793C176.178 14.2159 173.586 16.9999 168.402 16.9999H162.186V16.6159H163.938V6.43993Z" fill="#7AC4C5"/>
<path d="M183.199 5.47993C185.103 5.47993 186.359 5.91193 186.967 6.77593C187.591 7.62393 187.903 9.11193 187.903 11.2399V15.4879C187.903 16.1439 188.047 16.4719 188.335 16.4719C188.927 16.4719 189.319 15.5519 189.511 13.7119L189.943 13.7599C189.703 16.2399 188.895 17.4799 187.519 17.4799C187.119 17.4799 186.807 17.3359 186.583 17.0479C186.375 16.7599 186.239 16.4479 186.175 16.1119C186.127 15.7599 186.103 15.3279 186.103 14.8159H185.959C185.751 15.6639 185.327 16.3199 184.687 16.7839C184.047 17.2479 183.223 17.4799 182.215 17.4799C181.223 17.4799 180.351 17.2159 179.599 16.6879C178.847 16.1439 178.471 15.3679 178.471 14.3599C178.471 13.6079 178.687 12.9839 179.119 12.4879C180.015 11.4639 182.047 10.9519 185.215 10.9519C185.391 10.9519 185.575 10.9519 185.767 10.9519V9.77593C185.767 8.51193 185.551 7.55993 185.119 6.91993C184.687 6.27993 183.935 5.95993 182.863 5.95993C181.807 5.95993 181.031 6.17593 180.535 6.60793C180.039 7.03993 179.791 7.48793 179.791 7.95193C179.791 8.09593 179.855 8.16793 179.983 8.16793C180.127 8.16793 180.207 8.09593 180.223 7.95193C180.319 7.53593 180.639 7.32793 181.183 7.32793C181.535 7.32793 181.815 7.45593 182.023 7.71193C182.231 7.95193 182.335 8.25593 182.335 8.62393C182.335 8.97593 182.199 9.27993 181.927 9.53593C181.671 9.77593 181.327 9.89593 180.895 9.89593C180.479 9.89593 180.111 9.73593 179.791 9.41593C179.487 9.07993 179.335 8.67193 179.335 8.19193C179.335 7.29593 179.711 6.62393 180.463 6.17593C181.215 5.71193 182.127 5.47993 183.199 5.47993ZM185.767 12.9919V11.3839C185.607 11.3839 185.351 11.3839 184.999 11.3839C184.663 11.3839 184.255 11.4079 183.775 11.4559C183.311 11.5039 182.831 11.6239 182.335 11.8159C181.311 12.1839 180.799 12.9999 180.799 14.2639C180.799 15.0319 180.983 15.6479 181.351 16.1119C181.719 16.5759 182.311 16.8079 183.127 16.8079C183.943 16.8079 184.583 16.4399 185.047 15.7039C185.527 14.9679 185.767 14.0639 185.767 12.9919Z" fill="#7AC4C5"/>
<path d="M204.304 16.3999C205.104 16.3999 205.848 15.6399 206.536 14.1199C207.224 12.5999 207.568 10.9999 207.568 9.31993C207.568 7.01593 206.944 5.86393 205.696 5.86393C205.536 5.86393 205.456 5.92793 205.456 6.05593C205.456 6.18393 205.528 6.26393 205.672 6.29593C206.104 6.37593 206.32 6.69593 206.32 7.25593C206.304 7.59193 206.176 7.86393 205.936 8.07193C205.712 8.27993 205.408 8.38393 205.024 8.38393C204.656 8.38393 204.344 8.25593 204.088 7.99993C203.848 7.74393 203.728 7.40793 203.728 6.99193C203.728 6.57593 203.896 6.22393 204.232 5.93593C204.568 5.63193 204.976 5.47993 205.456 5.47993C207.152 5.47993 208 6.72793 208 9.22393C208 11.2719 207.552 13.1599 206.656 14.8879C205.76 16.6159 204.704 17.4799 203.488 17.4799C201.936 17.4799 200.752 16.3119 199.936 13.9759C199.504 15.0319 198.976 15.8799 198.352 16.5199C197.728 17.1599 197.064 17.4799 196.36 17.4799C195 17.4799 193.92 16.5839 193.12 14.7919C192.336 12.9999 191.944 10.6239 191.944 7.66393V6.31993H190.24V5.95993H190.744C192.008 5.95993 193.136 5.85593 194.128 5.64793V7.11193C194.128 9.36793 194.344 11.4079 194.776 13.2319C195 14.1759 195.32 14.9439 195.736 15.5359C196.152 16.1119 196.608 16.3999 197.104 16.3999C197.616 16.3999 198.096 16.1199 198.544 15.5599C199.008 14.9839 199.4 14.2399 199.72 13.3279C199.288 11.7599 199.072 9.87193 199.072 7.66393V6.31993H197.368V5.95993H197.872C199.136 5.95993 200.264 5.85593 201.256 5.64793V7.11193C201.256 9.36793 201.472 11.4079 201.904 13.2319C202.128 14.1759 202.448 14.9439 202.864 15.5359C203.28 16.1119 203.76 16.3999 204.304 16.3999Z" fill="#7AC4C5"/>
<path d="M215.46 16.6399V16.9999H210.156V16.6399H211.74V6.31993H210.036V5.95993H210.54C211.804 5.95993 212.932 5.85593 213.924 5.64793V8.04793H214.068C214.34 7.27993 214.796 6.66393 215.436 6.19993C216.092 5.71993 216.82 5.47993 217.62 5.47993C219.012 5.47993 219.964 5.89593 220.476 6.72793C220.988 7.54393 221.244 8.76793 221.244 10.3999V16.6399H222.828V16.9999H217.524V16.6399H219.108V10.7359C219.108 8.92793 218.972 7.73593 218.7 7.15993C218.572 6.90393 218.372 6.67193 218.1 6.46393C217.844 6.25593 217.46 6.15193 216.948 6.15193C216.436 6.15193 215.948 6.33593 215.484 6.70393C215.036 7.07193 214.7 7.57593 214.476 8.21593C214.076 9.35193 213.876 10.7119 213.876 12.2959V16.6399H215.46Z" fill="#7AC4C5"/>
</svg>
