<svg width="50" height="50" viewBox="0 0 50 50" fill="none" xmlns="http://www.w3.org/2000/svg">
<path d="M24.991 38.9493H25.0008M25.0008 38.9493C30.7562 38.9478 38.1015 37.8007 41.8119 37.1485C43.0269 36.9353 43.6583 35.7757 43.098 34.8104C40.0183 29.5051 37.6865 26.1595 34.3596 22.4677C33.346 21.3429 34.2385 19.6575 35.8776 19.6575H37.7058C39.0098 19.6575 39.9312 18.5466 39.4287 17.4961C36.478 11.3289 31.0205 5.90082 25.0008 2.90088C18.9812 5.90082 13.5239 11.3289 10.5732 17.4961C10.0705 18.5466 10.992 19.6575 12.2957 19.6575H14.1241C15.7632 19.6575 16.6557 21.3429 15.642 22.4677C12.3152 26.1595 9.98333 29.5051 6.90355 34.8104C6.34322 35.7757 6.97476 36.9353 8.18965 37.1485C11.9002 37.8007 19.2455 38.9478 25.0008 38.9493ZM25.0008 38.9493H25.0107" stroke="#83E509" stroke-linecap="round" stroke-linejoin="round"/>
<path d="M25.1992 38.9492V47.0989" stroke="black" stroke-linecap="round" stroke-linejoin="round"/>
</svg>
