<svg width="50" height="50" viewBox="0 0 50 50" fill="none" xmlns="http://www.w3.org/2000/svg">
<path d="M10.5311 33.5104C12.1111 33.5104 13.6263 32.8827 14.7436 31.7655C15.8608 30.6483 16.4884 29.133 16.4884 27.553V22.4468C16.4884 20.8668 17.1161 19.3515 18.2333 18.2343C19.3505 17.1171 20.8658 16.4894 22.4457 16.4894C24.0257 16.4894 25.541 15.8618 26.6582 14.7446C27.7754 13.6274 28.4031 12.1121 28.4031 10.5321V2.84123C27.3116 2.73305 26.1766 2.67847 24.9992 2.67847C10.7134 2.67847 2.67773 10.7142 2.67773 24.9999C2.67773 28.1463 3.06753 30.9894 3.82806 33.5104H10.5311Z" stroke="#7AC4C5" stroke-linecap="round" stroke-linejoin="round"/>
<path d="M38.6319 42.4295L38.628 43.8434M38.628 43.8434C44.2844 40.1995 47.3201 33.7803 47.3201 24.9999C47.3201 24.9229 47.3198 24.8461 47.3194 24.7694L47.1233 24.6584C45.4194 23.7747 43.5298 23.3084 41.6105 23.2979H34.3597C32.7797 23.2979 31.2645 23.9255 30.1472 25.0427C29.03 26.1599 28.4023 27.6752 28.4023 29.2552C28.4023 30.8351 29.03 32.3504 30.1472 33.4676C31.2645 34.5849 32.7797 35.2125 34.3597 35.2125C35.4882 35.2125 36.5705 35.6608 37.3687 36.4588C38.1666 37.257 38.6148 38.3391 38.6148 39.4677V43.8516L38.628 43.8434Z" stroke="#7AC4C5" stroke-linecap="round" stroke-linejoin="round"/>
<path d="M24.9992 47.3213C39.2849 47.3213 47.3206 39.2856 47.3206 24.9999C47.3206 10.7142 39.2849 2.67847 24.9992 2.67847C10.7134 2.67847 2.67773 10.7142 2.67773 24.9999C2.67773 39.2856 10.7134 47.3213 24.9992 47.3213Z" stroke="#83E509" stroke-linecap="round" stroke-linejoin="round"/>
</svg>
