<svg width="50" height="50" viewBox="0 0 50 50" fill="none" xmlns="http://www.w3.org/2000/svg">
<path d="M34.1855 24.9119C32.5507 24.7639 31.3749 23.3451 31.3254 21.7043C31.2949 20.6951 31.2703 19.6946 31.2513 18.6994C30.2441 18.6804 29.2314 18.6555 28.2098 18.6247C26.569 18.5752 25.1503 17.3995 25.0022 15.7647C24.8847 14.4672 24.8847 13.1976 25.0022 11.9002C25.1503 10.2654 26.569 9.08968 28.2098 9.04018C29.2314 9.00936 30.2441 8.98446 31.2513 8.96546C31.2702 7.96964 31.2949 6.96843 31.3254 5.9585C31.3749 4.31768 32.5507 2.89894 34.1855 2.75093C35.4829 2.63348 36.7523 2.63348 38.0498 2.75093C39.6848 2.89894 40.8605 4.31768 40.9098 5.9585C40.9405 6.96882 40.9652 7.97046 40.9841 8.96664C41.9705 8.9855 42.9623 9.01 43.9623 9.04018C45.6034 9.08968 47.022 10.2654 47.1702 11.9002C47.2877 13.1976 47.2877 14.4672 47.1702 15.7647C47.022 17.3995 45.6034 18.5752 43.9623 18.6247C42.9623 18.6549 41.9705 18.6794 40.9841 18.6982C40.9652 19.6937 40.9405 20.6947 40.9098 21.7043C40.8605 23.3451 39.6848 24.7639 38.0498 24.9119C36.7523 25.0293 35.4829 25.0293 34.1855 24.9119Z" stroke="#83E509" stroke-linecap="round" stroke-linejoin="round"/>
<path d="M3.8083 22.7345L6.30276 22.5802C9.2413 22.3983 12.1903 22.6718 15.0453 23.3908L19.2097 24.4397C21.489 25.0138 23.0014 27.1741 22.7609 29.5122C22.4793 32.2494 19.9305 34.1699 17.2219 33.6859L13.2629 32.9786L27.2215 35.4817L41.6795 32.0502C44.0181 31.4951 46.3735 32.9043 46.9899 35.2276C47.5624 37.3858 46.4413 39.6329 44.3728 40.4733L32.8079 45.1719C27.1823 47.4579 20.9137 47.6008 15.1895 45.5744L3.19922 41.3293" stroke="black" stroke-linecap="round" stroke-linejoin="round"/>
</svg>
