<svg width="48" height="48" viewBox="0 0 48 48" fill="none" xmlns="http://www.w3.org/2000/svg">
<path d="M40.0068 46.6715L45.5782 39.6965C46.5888 38.4307 47.1391 36.8591 47.139 35.2394V19.8822C47.139 18.935 46.7627 18.0266 46.0929 17.3568C45.4231 16.6871 44.5147 16.3108 43.5675 16.3108C42.6203 16.3108 41.7119 16.6871 41.0421 17.3568C40.3724 18.0266 39.9961 18.935 39.9961 19.8822V30.5965" stroke="black" stroke-linecap="round"/>
<path d="M36.7282 37.1287L39.2532 34.6037C39.9228 33.934 40.2989 33.0257 40.2989 32.0787C40.2989 31.1317 39.9228 30.2235 39.2532 29.5537C38.5835 28.8842 37.6753 28.5081 36.7282 28.5081C35.7812 28.5081 34.873 28.8842 34.2032 29.5537L32.7247 31.0323C29.3769 34.381 27.4962 38.9222 27.4961 43.6573V46.6716" stroke="black" stroke-linecap="round"/>
<path d="M33.1222 15.925C33.1222 7.13218 24.0722 1.32861 24.0722 1.32861C24.0722 1.32861 15.0293 7.13218 15.0293 15.9286C15.0293 17.9786 15.9829 19.9429 17.6793 21.3929C19.3757 22.8393 21.6793 23.6536 24.0757 23.6536C26.4757 23.6536 28.7757 22.8393 30.4722 21.3929C32.1686 19.9429 33.1222 17.9786 33.1222 15.9286V15.925Z" stroke="#7AC4C5" stroke-linecap="round" stroke-linejoin="round"/>
<path d="M7.99704 46.6715L2.42561 39.6965C1.4138 38.4312 0.862189 36.8595 0.861328 35.2394V19.8822C0.861328 18.935 1.2376 18.0266 1.90738 17.3568C2.57715 16.6871 3.48555 16.3108 4.43276 16.3108C5.37996 16.3108 6.28837 16.6871 6.95814 17.3568C7.62791 18.0266 8.00419 18.935 8.00419 19.8822V30.5965" stroke="black" stroke-linecap="round"/>
<path d="M11.2718 37.1287L8.74684 34.6037C8.0773 33.934 7.70117 33.0257 7.70117 32.0787C7.70117 31.1317 8.0773 30.2235 8.74684 29.5537C9.41658 28.8842 10.3248 28.5081 11.2718 28.5081C12.2189 28.5081 13.1271 28.8842 13.7968 29.5537L15.2754 31.0323C18.6232 34.381 20.5039 38.9222 20.504 43.6573V46.6716" stroke="black" stroke-linecap="round"/>
</svg>
