<svg width="50" height="50" viewBox="0 0 50 50" fill="none" xmlns="http://www.w3.org/2000/svg">
<path d="M17.8184 24.9964C17.8184 25.9344 18.0031 26.8632 18.3621 27.7298C18.721 28.5964 19.2472 29.3839 19.9105 30.0471C20.5737 30.7104 21.3612 31.2366 22.2278 31.5955C23.0944 31.9545 24.0232 32.1392 24.9612 32.1392C25.8992 32.1392 26.8281 31.9545 27.6947 31.5955C28.5613 31.2366 29.3487 30.7104 30.012 30.0471C30.6753 29.3839 31.2014 28.5964 31.5604 27.7298C31.9193 26.8632 32.1041 25.9344 32.1041 24.9964C32.1041 24.0584 31.9193 23.1295 31.5604 22.2629C31.2014 21.3963 30.6753 20.6089 30.012 19.9456C29.3487 19.2823 28.5613 18.7562 27.6947 18.3972C26.8281 18.0383 25.8992 17.8535 24.9612 17.8535C24.0232 17.8535 23.0944 18.0383 22.2278 18.3972C21.3612 18.7562 20.5737 19.2823 19.9105 19.9456C19.2472 20.6089 18.721 21.3963 18.3621 22.2629C18.0031 23.1295 17.8184 24.0584 17.8184 24.9964Z" stroke="#C5E2E6" stroke-linecap="round" stroke-linejoin="round"/>
<path d="M25.0498 17.8529C12.2619 16.209 0.716574 23.7702 1.94319 33.8498C3.67374 48.0692 25.0498 46.2917 33.9369 40.9595" stroke="#C5E2E6" stroke-linecap="round" stroke-linejoin="round"/>
<path d="M24.9496 32.147C37.7374 33.7908 49.2828 26.2297 48.0564 16.1501C46.3256 1.93068 24.9496 3.70812 16.0625 9.04041" stroke="#C5E2E6" stroke-linecap="round" stroke-linejoin="round"/>
</svg>
