<svg width="50" height="50" viewBox="0 0 50 50" fill="none" xmlns="http://www.w3.org/2000/svg">
<path d="M47.3201 12.5012C43.2555 7.26779 31.0044 -1.25185 17.856 5.35832C34.442 4.92775 34.4295 25.0012 16.0702 25.0012C9.7112 25.0012 5.50884 23.4607 2.75781 21.5553" stroke="#7AC4C5" stroke-linecap="round" stroke-linejoin="round"/>
<path d="M2.67773 33.0233C4.15556 34.0086 8.58906 35.9789 14.5004 35.9789C21.8896 35.9789 26.5902 30.0676 35.4572 30.0676C42.551 30.0676 45.1017 32.5186 47.3206 34.1933" stroke="#FFE6B6" stroke-linecap="round" stroke-linejoin="round"/>
<path d="M2.67773 42.5673C4.15556 43.5526 8.58906 45.523 14.5004 45.523C25.5315 45.523 26.6252 39.6116 35.7781 39.6116C41.5742 39.6116 44.7085 42.0723 46.3499 44.1866" stroke="#FFE6B6" stroke-linecap="round" stroke-linejoin="round"/>
</svg>
